<?xml version="1.0"?>
<svg xmlns="http://www.w3.org/2000/svg" height="512px" viewBox="0 -61 512 512" width="512px"><path d="m377 180c-8.277344 0-15 6.722656-15 15s6.722656 15 15 15 15-6.722656 15-15-6.722656-15-15-15zm0 0" fill="#FFFFFF"/><path d="m392 90v-30h90v-60h-452v60h90v30h-48.546875l-71.453125 35.726562v174.273438h512v-174.273438l-71.453125-35.726562zm-242-30h212v30h-212zm152 180h-212v-90h212zm75 0c-24.8125 0-45-20.1875-45-45s20.1875-45 45-45 45 20.1875 45 45-20.1875 45-45 45zm0 0" fill="#FFFFFF"/><path d="m120 180h152v30h-152zm0 0" fill="#FFFFFF"/><path d="m60 330h60v60h-60zm0 0" fill="#FFFFFF"/><path d="m392 330h60v60h-60zm0 0" fill="#FFFFFF"/></svg>
