<?xml version="1.0" encoding="iso-8859-1"?>
<!-- Generator: Adobe Illustrator 18.1.1, SVG Export Plug-In . SVG Version: 6.00 Build 0)  -->
<svg xmlns="http://www.w3.org/2000/svg" xmlns:xlink="http://www.w3.org/1999/xlink" version="1.1" id="Capa_1" x="0px" y="0px" viewBox="0 0 488.016 488.016" style="enable-background:new 0 0 488.016 488.016;" xml:space="preserve" width="512px" height="512px">
<g>
	<g id="Icons_8_">
		<path d="M481.523,397.51l-51.765-91.915V197.413c0-23.474-19.104-42.57-42.579-42.57h-35.45v-49.016h23.909    c16.024,0,29.049-13.033,29.049-29.057V44.09c0-16.025-13.024-29.058-29.049-29.058h-97.341c-16.024,0-29.05,13.032-29.05,29.058    v32.68c0,16.024,13.026,29.057,29.05,29.057h23.909v49.016H100.838c-23.475,0-42.579,19.096-42.579,42.57v108.182L6.494,397.51    c-8.801,15.599-8.641,34.912,0.389,50.388c9.043,15.477,25.793,25.086,43.718,25.086h386.815c17.924,0,34.675-9.609,43.718-25.086    C490.163,432.422,490.323,413.109,481.523,397.51z M282.418,79.767c-2.308,0-4.205-1.888-4.205-4.21V43.519    c0-2.322,1.897-4.21,4.205-4.21h95.428c2.322,0,4.206,1.888,4.206,4.21v32.038c0,2.322-1.883,4.21-4.206,4.21    C377.846,79.767,282.418,79.767,282.418,79.767z M382.351,265.875H115.256v-65.227h267.095V265.875z" fill="#FFFFFF"/>
	</g>
</g>
<g>
</g>
<g>
</g>
<g>
</g>
<g>
</g>
<g>
</g>
<g>
</g>
<g>
</g>
<g>
</g>
<g>
</g>
<g>
</g>
<g>
</g>
<g>
</g>
<g>
</g>
<g>
</g>
<g>
</g>
</svg>
