<?xml version="1.0" encoding="UTF-8" standalone="no"?>
<!-- Created with Inkscape (http://www.inkscape.org/) -->

<svg
   xmlns:dc="http://purl.org/dc/elements/1.1/"
   xmlns:cc="http://creativecommons.org/ns#"
   xmlns:rdf="http://www.w3.org/1999/02/22-rdf-syntax-ns#"
   xmlns:svg="http://www.w3.org/2000/svg"
   xmlns="http://www.w3.org/2000/svg"
   xmlns:sodipodi="http://sodipodi.sourceforge.net/DTD/sodipodi-0.dtd"
   xmlns:inkscape="http://www.inkscape.org/namespaces/inkscape"
   width="622.19348"
   height="149.92438"
   id="svg2"
   version="1.1"
   inkscape:version="0.48.1 r9760"
   sodipodi:docname="cartel1.svg">
  <defs
     id="defs4">
    <style
       id="style3089"
       type="text/css">
   
    .str0 {stroke:white;stroke-width:0.0762}
    .fil2 {fill:none}
    .fil0 {fill:black}
    .fil1 {fill:#191919}
   
  </style>
    <style
       type="text/css"
       id="style3947">
   
    .str0 {stroke:#1F1A17;stroke-width:0.0762}
    .fil2 {fill:none}
    .fil3 {fill:#00599E}
    .fil0 {fill:#DA2724}
    .fil1 {fill:white}
   
  </style>
    <linearGradient
       id="linearGradient3807">
      <stop
         id="stop3809"
         offset="0"
         style="stop-color:#0000ff;stop-opacity:1;" />
      <stop
         style="stop-color:#0000bf;stop-opacity:0.74901961;"
         offset="0.5"
         id="stop3817" />
      <stop
         style="stop-color:#000080;stop-opacity:0.49803922;"
         offset="1"
         id="stop3815" />
    </linearGradient>
  </defs>
  <sodipodi:namedview
     id="base"
     pagecolor="#ffffff"
     bordercolor="#666666"
     borderopacity="1.0"
     inkscape:pageopacity="0.0"
     inkscape:pageshadow="2"
     inkscape:zoom="1.1384937"
     inkscape:cx="483.49787"
     inkscape:cy="-23.403202"
     inkscape:document-units="mm"
     inkscape:current-layer="layer1"
     showgrid="false"
     showguides="true"
     inkscape:guide-bbox="true"
     inkscape:window-width="1366"
     inkscape:window-height="693"
     inkscape:window-x="0"
     inkscape:window-y="25"
     inkscape:window-maximized="1"
     inkscape:snap-global="true"
     inkscape:snap-bbox="true"
     inkscape:bbox-paths="true"
     inkscape:bbox-nodes="true"
     inkscape:snap-bbox-edge-midpoints="true"
     inkscape:snap-bbox-midpoints="true"
     fit-margin-top="0"
     fit-margin-left="0"
     fit-margin-right="0"
     fit-margin-bottom="0" />
  <metadata
     id="metadata7">
    <rdf:RDF>
      <cc:Work
         rdf:about="">
        <dc:format>image/svg+xml</dc:format>
        <dc:type
           rdf:resource="http://purl.org/dc/dcmitype/StillImage" />
        <dc:title></dc:title>
      </cc:Work>
    </rdf:RDF>
  </metadata>
  <g
     inkscape:label="Capa 1"
     inkscape:groupmode="layer"
     id="layer1"
     transform="translate(-30.765149,-146.87332)">
    <g
       id="g4212"
       transform="matrix(0.91266915,0,0,0.91266915,2.6867466,19.373093)">
      <path
         id="path3093"
         d="m 290.83517,295.60086 6.20772,-28.87442 3.9428,0 -6.1868,28.87442 -3.96372,0 z m 10.51643,0 4.49525,-20.91462 3.31457,0 -0.7873,3.64354 c 1.44297,-1.43187 2.78924,-2.48053 4.04636,-3.13262 1.24925,-0.65892 2.5338,-0.98822 3.83892,-0.98822 1.73995,0 3.10715,0.4639 4.10159,1.37797 0.98723,0.92127 1.48445,2.15123 1.48445,3.68408 0,0.78011 -0.17242,1.99671 -0.52466,3.66414 l -2.73438,12.66573 -3.65956,0 2.85165,-13.25737 c 0.28326,-1.28422 0.42831,-2.2388 0.42831,-2.85037 0,-0.69942 -0.24862,-1.26394 -0.73899,-1.6942 -0.49722,-0.43711 -1.20841,-0.65208 -2.1336,-0.65208 -1.87811,0 -3.54914,0.65862 -5.00619,1.96962 -1.46354,1.31101 -2.54098,3.56319 -3.23128,6.75659 l -2.0787,9.72781 -3.66644,0 z m 22.84144,1.88922 3.70138,0.33618 c -0.0263,0.81344 0.0759,1.42502 0.30349,1.83534 0.22803,0.40314 0.59392,0.71903 1.09081,0.94118 0.66318,0.28879 1.51944,0.43678 2.56908,0.43678 2.21626,0 3.80462,-0.55797 4.77785,-1.67396 0.62853,-0.75301 1.21559,-2.37991 1.76116,-4.88756 l 0.35904,-1.69389 c -1.89905,1.87551 -3.92225,2.81671 -6.06956,2.81671 -2.16823,0 -3.9843,-0.77983 -5.44786,-2.33291 -1.46389,-1.5596 -2.19567,-3.75789 -2.19567,-6.60857 0,-2.35281 0.57301,-4.51092 1.72589,-6.48053 1.15321,-1.96993 2.52726,-3.45572 4.12248,-4.4642 1.58804,-1.00163 3.22443,-1.50571 4.91635,-1.50571 2.81704,0 4.98493,1.30414 6.51091,3.89902 l 0.72525,-3.42172 3.36261,0 -4.32928,20.1887 c -0.47665,2.21821 -1.09081,3.94608 -1.86442,5.1898 -0.76641,1.23715 -1.83663,2.19828 -3.20416,2.88399 -1.36686,0.67919 -2.94837,1.02189 -4.74319,1.02189 -1.72656,0 -3.21103,-0.21497 -4.46093,-0.65207 -1.24959,-0.43025 -2.18197,-1.06207 -2.78962,-1.89579 -0.61417,-0.83371 -0.92485,-1.78828 -0.92485,-2.8706 0,-0.32277 0.0344,-0.67886 0.10314,-1.06208 z m 4.57103,-11.14662 c 0,1.43188 0.14537,2.50769 0.4283,3.23391 0.40051,1.00816 0.98037,1.78143 1.7262,2.31262 0.74553,0.53086 1.58151,0.79321 2.4995,0.79321 1.20158,0 2.39594,-0.41 3.5766,-1.23032 1.18785,-0.82032 2.14765,-2.09081 2.88629,-3.8118 0.73179,-1.71446 1.1052,-3.36129 1.1052,-4.92124 0,-1.72101 -0.49038,-3.08557 -1.4711,-4.10748 -0.97352,-1.01533 -2.18881,-1.52626 -3.63179,-1.52626 -0.89088,0 -1.75399,0.23553 -2.58934,0.69943 -0.83566,0.46356 -1.61579,1.17642 -2.33419,2.12412 -0.7246,0.95492 -1.27016,2.09769 -1.63638,3.42207 -0.37275,1.32441 -0.55929,2.32604 -0.55929,3.01174 z m 34.44869,2.14472 3.56285,0.3561 c -0.51094,1.72132 -1.69159,3.35475 -3.52822,4.90784 -1.84352,1.54619 -4.03919,2.3195 -6.58737,2.3195 -1.58804,0 -3.05224,-0.35643 -4.37796,-1.06927 -1.32569,-0.71904 -2.3404,-1.76118 -3.03786,-3.12609 -0.69062,-1.36457 -1.0356,-2.91765 -1.0356,-4.66544 0,-2.28582 0.53836,-4.49751 1.62266,-6.64877 1.0908,-2.1447 2.49263,-3.73797 4.21886,-4.78665 1.7262,-1.04214 3.59747,-1.56646 5.60661,-1.56646 2.56191,0 4.60568,0.7798 6.13848,2.32602 1.53283,1.55309 2.29239,3.66382 2.29239,6.33973 0,1.02841 -0.0898,2.07708 -0.28324,3.15289 l -15.81926,0 c -0.048,0.40998 -0.0759,0.77326 -0.0759,1.10256 0,1.95621 0.46294,3.44884 1.38125,4.48412 0.92518,1.02843 2.05749,1.54623 3.39036,1.54623 1.25646,0 2.48545,-0.40346 3.70075,-1.20353 1.21526,-0.79973 2.16137,-1.95622 2.83109,-3.46878 z m -10.64026,-5.17671 12.05579,0 c 0.0131,-0.3698 0.0197,-0.63182 0.0197,-0.78667 0,-1.78796 -0.45574,-3.15941 -1.37406,-4.10745 -0.91832,-0.95459 -2.0993,-1.43188 -3.54228,-1.43188 -1.5606,0 -2.98987,0.53085 -4.27407,1.57987 -1.2914,1.04865 -2.25122,2.62852 -2.88629,4.74613 z m 17.90417,12.28939 4.49524,-20.91462 3.31457,0 -0.7873,3.64354 c 1.44332,-1.43187 2.78927,-2.48053 4.04637,-3.13262 1.24958,-0.65892 2.53381,-0.98822 3.83893,-0.98822 1.73995,0 3.10713,0.4639 4.10157,1.37797 0.98724,0.92127 1.48479,2.15123 1.48479,3.68408 0,0.78011 -0.17279,1.99671 -0.52499,3.66414 l -2.73439,12.66573 -3.65954,0 2.85165,-13.25737 c 0.28326,-1.28422 0.4283,-2.2388 0.4283,-2.85037 0,-0.69942 -0.24863,-1.26394 -0.73897,-1.6942 -0.49724,-0.43711 -1.20842,-0.65208 -2.13361,-0.65208 -1.87815,0 -3.54916,0.65862 -5.00618,1.96962 -1.46357,1.31101 -2.541,3.56319 -3.23129,6.75659 l -2.0787,9.72781 -3.66645,0 z m 28.24126,-24.83425 0.86999,-4.04017 3.63899,0 -0.86345,4.04017 -3.64553,0 z m -5.33742,24.83425 4.48806,-20.91462 3.65955,0 -4.48805,20.91462 -3.65956,0 z m 25.11975,-7.11268 3.56321,0.3561 c -0.51129,1.72132 -1.69191,3.35475 -3.52859,4.90784 -1.84348,1.54619 -4.03917,2.3195 -6.58734,2.3195 -1.58805,0 -3.05194,-0.35643 -4.37763,-1.06927 -1.3257,-0.71904 -2.34073,-1.76118 -3.03822,-3.12609 -0.69028,-1.36457 -1.0356,-2.91765 -1.0356,-4.66544 0,-2.28582 0.53839,-4.49751 1.62266,-6.64877 1.09081,-2.1447 2.49264,-3.73797 4.21887,-4.78665 1.72623,-1.04214 3.59749,-1.56646 5.60664,-1.56646 2.56189,0 4.60564,0.7798 6.13848,2.32602 1.53281,1.55309 2.29237,3.66382 2.29237,6.33973 0,1.02841 -0.0898,2.07708 -0.28291,3.15289 l -15.81926,0 c -0.0483,0.40998 -0.0761,0.77326 -0.0761,1.10256 0,1.95621 0.4629,3.44884 1.38122,4.48412 0.92519,1.02843 2.0575,1.54623 3.39037,1.54623 1.25644,0 2.48546,-0.40346 3.70073,-1.20353 1.2153,-0.79973 2.1614,-1.95622 2.83109,-3.46878 z m -10.64026,-5.17671 12.0558,0 c 0.0131,-0.3698 0.0197,-0.63182 0.0197,-0.78667 0,-1.78796 -0.4557,-3.15941 -1.37403,-4.10745 -0.91831,-0.95459 -2.0993,-1.43188 -3.54228,-1.43188 -1.56059,0 -2.98986,0.53085 -4.27408,1.57987 -1.29139,1.04865 -2.25122,2.62852 -2.88631,4.74613 z m 17.90419,12.28939 4.49523,-20.91462 3.23163,0 -0.90461,4.26882 c 1.10454,-1.6135 2.18194,-2.81017 3.24532,-3.58312 1.05619,-0.77326 2.14046,-1.163 3.24533,-1.163 0.72491,0 1.62266,0.25545 2.6929,0.77295 l -1.49852,3.30771 c -0.63509,-0.4505 -1.33256,-0.67233 -2.08525,-0.67233 -1.27737,0 -2.59621,0.69913 -3.94248,2.09082 -1.35381,1.3917 -2.40999,3.89249 -3.17641,7.50273 l -1.82291,8.39004 -3.48023,0 z m 14.94928,0 4.49523,-20.91462 3.65923,0 -4.49523,20.91462 -3.65923,0 z m 3.52138,-23.45593 3.79775,-5.41849 4.61253,0 -5.37893,5.41849 -3.03135,0 z m 21.32265,20.85416 c -1.2705,1.06207 -2.48577,1.84222 -3.65956,2.3329 -1.17413,0.49755 -2.43056,0.73963 -3.76346,0.73963 -1.98169,0 -3.58346,-0.56485 -4.79873,-1.70109 -1.20843,-1.13622 -1.81607,-2.58833 -1.81607,-4.36293 0,-1.16987 0.26918,-2.20514 0.81476,-3.09929 0.54557,-0.901 1.27081,-1.62689 2.17511,-2.1715 0.90459,-0.54458 2.00944,-0.93463 3.32143,-1.16987 0.82162,-0.15458 2.38189,-0.28227 4.68145,-0.37633 2.29924,-0.0876 3.94967,-0.32965 4.94378,-0.70599 0.28324,-0.97484 0.42797,-1.78144 0.42797,-2.42697 0,-0.82685 -0.31068,-1.47239 -0.93205,-1.94969 -0.84906,-0.65206 -2.09212,-0.98137 -3.72163,-0.98137 -1.54002,0 -2.79645,0.32931 -3.77032,0.99477 -0.98041,0.6658 -1.69159,1.60697 -2.1336,2.82391 l -3.7076,-0.31625 c 0.75923,-2.07055 1.95395,-3.65694 3.59063,-4.76639 1.64293,-1.10256 3.70759,-1.65369 6.20024,-1.65369 2.6586,0 4.76475,0.61841 6.3113,1.85526 1.18785,0.91439 1.78112,2.11107 1.78112,3.58345 0,1.11597 -0.16534,2.40671 -0.50377,3.8791 l -1.19471,5.20352 c -0.3796,1.65368 -0.5658,2.99832 -0.5658,4.03361 0,0.65892 0.15162,1.60014 0.44853,2.83698 l -3.70793,0 c -0.20025,-0.68573 -0.33844,-1.54622 -0.42109,-2.60177 z m 1.35346,-7.99342 c -0.51091,0.19504 -1.06337,0.34955 -1.65042,0.4505 -0.58708,0.10753 -1.56745,0.21497 -2.9415,0.33617 -2.12674,0.18132 -3.63213,0.41686 -4.50895,0.69912 -0.87718,0.28226 -1.5397,0.73276 -1.98169,1.35119 -0.44888,0.6119 -0.66974,1.2976 -0.66974,2.04376 0,1.00161 0.35219,1.82194 1.06338,2.46747 0.70434,0.63836 1.71217,0.96112 3.02415,0.96112 1.21529,0 2.38223,-0.30903 3.50113,-0.93432 1.11825,-0.62529 2.00195,-1.49266 2.64422,-2.60863 0.64945,-1.11596 1.15321,-2.70923 1.51942,-4.76638 z m 34.48985,3.48251 3.5632,0.3561 c -0.51126,1.72132 -1.69191,3.35475 -3.52856,4.90784 -1.8435,1.54619 -4.03919,2.3195 -6.58736,2.3195 -1.58803,0 -3.05193,-0.35643 -4.37763,-1.06927 -1.32571,-0.71904 -2.34072,-1.76118 -3.03819,-3.12609 -0.6903,-1.36457 -1.03561,-2.91765 -1.03561,-4.66544 0,-2.28582 0.53838,-4.49751 1.62265,-6.64877 1.0908,-2.1447 2.49264,-3.73797 4.21887,-4.78665 1.72622,-1.04214 3.5975,-1.56646 5.60663,-1.56646 2.56189,0 4.60566,0.7798 6.13848,2.32602 1.53283,1.55309 2.29271,3.66382 2.29271,6.33973 0,1.02841 -0.0903,2.07708 -0.28323,3.15289 l -15.81929,0 c -0.0483,0.40998 -0.0759,0.77326 -0.0759,1.10256 0,1.95621 0.4626,3.44884 1.3809,4.48412 0.92519,1.02843 2.0575,1.54623 3.3904,1.54623 1.25644,0 2.48544,-0.40346 3.70073,-1.20353 1.2156,-0.79973 2.16136,-1.95622 2.83108,-3.46878 z m -10.64025,-5.17671 12.0558,0 c 0.0131,-0.3698 0.0197,-0.63182 0.0197,-0.78667 0,-1.78796 -0.45574,-3.15941 -1.37405,-4.10745 -0.91832,-0.95459 -2.099,-1.43188 -3.5423,-1.43188 -1.56058,0 -2.98986,0.53085 -4.27407,1.57987 -1.2914,1.04865 -2.2512,2.62852 -2.8863,4.74613 z m 17.90418,12.28939 4.49523,-20.91462 3.31459,0 -0.78732,3.64354 c 1.44333,-1.43187 2.78928,-2.48053 4.04638,-3.13262 1.24959,-0.65892 2.53378,-0.98822 3.83891,-0.98822 1.73996,0 3.10746,0.4639 4.10157,1.37797 0.98761,0.92127 1.48482,2.15123 1.48482,3.68408 0,0.78011 -0.17279,1.99671 -0.52498,3.66414 l -2.73407,12.66573 -3.6599,0 2.85168,-13.25737 c 0.28322,-1.28422 0.42826,-2.2388 0.42826,-2.85037 0,-0.69942 -0.24859,-1.26394 -0.73894,-1.6942 -0.49723,-0.43711 -1.20844,-0.65208 -2.13361,-0.65208 -1.87782,0 -3.54884,0.65862 -5.00618,1.96962 -1.46356,1.31101 -2.54099,3.56319 -3.23128,6.75659 l -2.07873,9.72781 -3.66643,0 z m 36.09226,-9.33808 3.88041,-0.34956 -0.0343,1.00164 c 0,1.11596 0.26266,2.13783 0.787,3.06562 0.52466,0.92127 1.39496,1.64031 2.61024,2.14472 1.20811,0.5041 2.65141,0.75957 4.32929,0.75957 2.36849,0 4.18456,-0.50409 5.42728,-1.51945 1.24993,-1.00815 1.87127,-2.16462 1.87127,-3.46878 0,-0.90099 -0.33126,-1.72785 -0.98725,-2.48086 -0.67689,-0.73277 -2.5204,-1.72754 -5.52399,-2.9915 -2.33418,-0.98171 -3.92222,-1.74124 -4.77161,-2.26558 -1.33942,-0.85397 -2.31981,-1.78178 -2.95523,-2.78339 -0.63507,-1.00849 -0.95262,-2.15123 -0.95262,-3.442 0,-1.47893 0.42109,-2.82357 1.25645,-4.0137 0.83565,-1.19665 2.0578,-2.11074 3.66641,-2.74288 1.61614,-0.62496 3.43187,-0.94119 5.45507,-0.94119 2.41682,0 4.45374,0.39006 6.1107,1.18328 1.6573,0.78664 2.85886,1.83533 3.61154,3.14634 0.74584,1.31754 1.11859,2.5681 1.11859,3.76474 0,0.12126 -0.008,0.31593 -0.0197,0.59164 l -3.81834,0.29566 c 0,-0.81345 -0.0759,-1.45213 -0.22773,-1.90918 -0.2695,-0.80659 -0.68374,-1.47891 -1.24989,-2.03037 -0.56616,-0.55113 -1.34661,-0.99477 -2.34073,-1.33091 -0.98757,-0.33617 -2.0993,-0.50441 -3.32111,-0.50441 -2.1614,0 -3.83927,0.47728 -5.04083,1.41881 -0.91831,0.72589 -1.37403,1.68048 -1.37403,2.87714 0,0.71283 0.18653,1.34465 0.56646,1.90263 0.3793,0.55801 1.0562,1.10258 2.04378,1.64031 0.69716,0.38322 2.36131,1.13623 4.99181,2.26558 2.13392,0.92094 3.60435,1.64031 4.41258,2.17151 1.0771,0.69257 1.90589,1.53968 2.48545,2.52791 0.58018,0.98823 0.87029,2.11759 0.87029,3.3747 0,1.56648 -0.48318,3.00521 -1.4639,4.32961 -0.98069,1.31752 -2.32665,2.33942 -4.05319,3.05879 -1.72625,0.72622 -3.70794,1.08232 -5.93138,1.08232 -3.35544,0 -6.09701,-0.7125 -8.22341,-2.13786 -2.12023,-1.42501 -3.19047,-3.98659 -3.20417,-7.6909 z m 31.29319,-15.49617 0.86996,-4.04017 3.63902,0 -0.86345,4.04017 -3.64553,0 z m -5.33743,24.83425 4.48806,-20.91462 3.65954,0 -4.48803,20.91462 -3.65957,0 z m 9.68731,-7.14631 3.65989,-0.22184 c 0,1.0284 0.16566,1.90262 0.49003,2.62168 0.31754,0.71937 0.91832,1.31101 1.78862,1.77491 0.86997,0.45734 1.88499,0.6857 3.04474,0.6857 1.6158,0 2.83108,-0.31591 3.63899,-0.9412 0.8079,-0.63179 1.21527,-1.37797 1.21527,-2.23192 0,-0.61191 -0.24174,-1.19664 -0.73209,-1.74779 -0.49691,-0.55144 -1.71219,-1.23032 -3.64553,-2.03724 -1.94054,-0.81344 -3.17639,-1.37796 -3.71478,-1.7076 -0.90459,-0.53772 -1.58149,-1.16954 -2.04409,-1.90231 -0.45573,-0.72622 -0.68345,-1.56647 -0.68345,-2.50765 0,-1.65403 0.66973,-3.07252 2.02321,-4.25578 1.34627,-1.18294 3.23127,-1.77457 5.66183,-1.77457 2.69321,0 4.7507,0.61154 6.15907,1.82194 1.40869,1.21658 2.14078,2.81671 2.19599,4.80003 l -3.58375,0.23522 c -0.0552,-1.26395 -0.51097,-2.25904 -1.37407,-2.99181 -0.8631,-0.73929 -2.08525,-1.10224 -3.65957,-1.10224 -1.27048,0 -2.25121,0.28226 -2.95555,0.84024 -0.70402,0.5645 -1.04932,1.17641 -1.04932,1.83533 0,0.65894 0.30382,1.23685 0.91145,1.7344 0.40052,0.34303 1.44332,0.86737 3.13492,1.57332 2.80333,1.18294 4.57102,2.1176 5.29594,2.79644 1.16007,1.08919 1.73995,2.42046 1.73995,3.98007 0,1.03527 -0.32439,2.05716 -0.98039,3.05227 -0.656,0.99475 -1.65011,1.7948 -2.99672,2.3933 -1.33944,0.59818 -2.92093,0.89417 -4.74383,0.89417 -2.47863,0 -4.59163,-0.59849 -6.33158,-1.78831 -1.73994,-1.19667 -2.56189,-3.13981 -2.46518,-5.82876 z m 28.9247,4.24889 -0.60046,2.91768 c -0.87716,0.22182 -1.72654,0.33616 -2.55504,0.33616 -1.45016,0 -2.60991,-0.34957 -3.47301,-1.04902 -0.64915,-0.52432 -0.97389,-1.23682 -0.97389,-2.14438 0,-0.45735 0.17246,-1.51257 0.52502,-3.17313 l 2.6099,-12.14825 -2.89315,0 0.58673,-2.75626 2.89347,0 1.11174,-5.14308 4.19109,-2.46062 -1.64326,7.6037 3.60437,0 -0.60766,2.75626 -3.58374,0 -2.4858,11.56316 c -0.31067,1.46553 -0.46259,2.34627 -0.46259,2.6354 0,0.42373 0.12448,0.73962 0.37308,0.96797 0.24829,0.22214 0.65599,0.32964 1.22214,0.32964 0.80791,0 1.53252,-0.0741 2.16106,-0.23523 z m 18.73297,-4.21526 3.56322,0.3561 c -0.51095,1.72132 -1.69193,3.35475 -3.52858,4.90784 -1.84349,1.54619 -4.03918,2.3195 -6.58734,2.3195 -1.58805,0 -3.05193,-0.35643 -4.37764,-1.06927 -1.32572,-0.71904 -2.34073,-1.76118 -3.03788,-3.12609 -0.69061,-1.36457 -1.03594,-2.91765 -1.03594,-4.66544 0,-2.28582 0.53871,-4.49751 1.62266,-6.64877 1.09082,-2.1447 2.49264,-3.73797 4.21919,-4.78665 1.72591,-1.04214 3.59719,-1.56646 5.60632,-1.56646 2.56189,0 4.60564,0.7798 6.13882,2.32602 1.53279,1.55309 2.29236,3.66382 2.29236,6.33973 0,1.02841 -0.0898,2.07708 -0.28322,3.15289 l -15.81928,0 c -0.0484,0.40998 -0.0759,0.77326 -0.0759,1.10256 0,1.95621 0.46257,3.44884 1.38089,4.48412 0.9252,1.02843 2.0575,1.54623 3.39039,1.54623 1.25644,0 2.48578,-0.40346 3.70105,-1.20353 1.21529,-0.79973 2.16106,-1.95622 2.83075,-3.46878 z m -10.64025,-5.17671 12.05613,0 c 0.0131,-0.3698 0.0197,-0.63182 0.0197,-0.78667 0,-1.78796 -0.45541,-3.15941 -1.37404,-4.10745 -0.91832,-0.95459 -2.09897,-1.43188 -3.54228,-1.43188 -1.5606,0 -2.98985,0.53085 -4.27407,1.57987 -1.2914,1.04865 -2.25088,2.62852 -2.88631,4.74613 z m 17.88359,12.28939 4.49525,-20.91462 3.65957,0 -0.74583,3.44198 c 1.36035,-1.47891 2.57562,-2.50764 3.64585,-3.0722 1.07711,-0.56481 2.23717,-0.84708 3.49427,-0.84708 1.33225,0 2.45081,0.34955 3.34857,1.03527 0.89085,0.69224 1.48479,1.6537 1.7677,2.88401 1.09114,-1.31099 2.24434,-2.29237 3.44558,-2.94447 1.20809,-0.64551 2.47891,-0.97481 3.81834,-0.97481 1.78831,0 3.1349,0.41686 4.03232,1.2437 0.89774,0.82685 1.34661,1.98986 1.34661,3.48219 0,0.64553 -0.15195,1.7076 -0.46258,3.19338 l -2.89316,13.47265 -3.66676,0 2.95555,-13.82876 c 0.25547,-1.12967 0.38681,-1.93627 0.38681,-2.42043 0,-0.6857 -0.22117,-1.22345 -0.67004,-1.61353 -0.44201,-0.39658 -1.06989,-0.5913 -1.87812,-0.5913 -1.0977,0 -2.20942,0.32244 -3.34172,0.96112 -1.13263,0.64554 -2.00946,1.49264 -2.63767,2.53447 -0.62856,1.04213 -1.17381,2.64878 -1.65044,4.81374 l -2.18195,10.14469 -3.66676,0 3.03852,-14.12474 c 0.21399,-0.95456 0.32441,-1.64029 0.32441,-2.04375 0,-0.68573 -0.22084,-1.23684 -0.65599,-1.6537 -0.442,-0.42371 -1.00818,-0.63183 -1.71219,-0.63183 -1.03593,0 -2.12673,0.32244 -3.26623,0.96112 -1.13914,0.64554 -2.06467,1.53969 -2.78272,2.68931 -0.71121,1.14961 -1.29795,2.78994 -1.76086,4.91438 l -2.11957,9.88921 -3.66676,0 z m 49.01805,-2.60177 c -1.27052,1.06207 -2.48578,1.84222 -3.65925,2.3329 -1.17412,0.49755 -2.43089,0.73963 -3.76345,0.73963 -1.98169,0 -3.58345,-0.56485 -4.79906,-1.70109 -1.2081,-1.13622 -1.81574,-2.58833 -1.81574,-4.36293 0,-1.16987 0.26919,-2.20514 0.81476,-3.09929 0.54557,-0.901 1.27047,-1.62689 2.17477,-2.1715 0.90459,-0.54458 2.00947,-0.93463 3.32145,-1.16987 0.82194,-0.15458 2.3822,-0.28227 4.68145,-0.37633 2.29956,-0.0876 3.94968,-0.32965 4.94379,-0.70599 0.28322,-0.97484 0.42828,-1.78144 0.42828,-2.42697 0,-0.82685 -0.31068,-1.47239 -0.93205,-1.94969 -0.8494,-0.65206 -2.0921,-0.98137 -3.72197,-0.98137 -1.53968,0 -2.79644,0.32931 -3.76999,0.99477 -0.9804,0.6658 -1.69191,1.60697 -2.13359,2.82391 l -3.70791,-0.31625 c 0.75952,-2.07055 1.95392,-3.65694 3.59062,-4.76639 1.64324,-1.10256 3.70759,-1.65369 6.20056,-1.65369 2.65826,0 4.76443,0.61841 6.31096,1.85526 1.18785,0.91439 1.78146,2.11107 1.78146,3.58345 0,1.11597 -0.16534,2.40671 -0.50408,3.8791 l -1.1944,5.20352 c -0.37993,1.65368 -0.56614,2.99832 -0.56614,4.03361 0,0.65892 0.15162,1.60014 0.44856,2.83698 l -3.70794,0 c -0.19993,-0.68573 -0.33813,-1.54622 -0.42109,-2.60177 z m 1.35346,-7.99342 c -0.51093,0.19504 -1.06338,0.34955 -1.65042,0.4505 -0.58675,0.10753 -1.56713,0.21497 -2.94118,0.33617 -2.12674,0.18132 -3.63247,0.41686 -4.50895,0.69912 -0.87717,0.28226 -1.54003,0.73276 -1.9817,1.35119 -0.44921,0.6119 -0.66973,1.2976 -0.66973,2.04376 0,1.00161 0.35185,1.82194 1.06306,2.46747 0.70435,0.63836 1.7125,0.96112 3.02447,0.96112 1.21529,0 2.38223,-0.30903 3.50081,-0.93432 1.11825,-0.62529 2.00227,-1.49266 2.64454,-2.60863 0.64911,-1.11596 1.15323,-2.70923 1.5191,-4.76638 z m 7.54684,3.44888 3.65989,-0.22184 c 0,1.0284 0.16568,1.90262 0.49005,2.62168 0.31753,0.71937 0.91864,1.31101 1.78862,1.77491 0.86997,0.45734 1.88499,0.6857 3.04507,0.6857 1.61548,0 2.83075,-0.31591 3.63864,-0.9412 0.80823,-0.63179 1.21563,-1.37797 1.21563,-2.23192 0,-0.61191 -0.24208,-1.19664 -0.73246,-1.74779 -0.49688,-0.55144 -1.71217,-1.23032 -3.64551,-2.03724 -1.94055,-0.81344 -3.17606,-1.37796 -3.71476,-1.7076 -0.90461,-0.53772 -1.58119,-1.16954 -2.0441,-1.90231 -0.45574,-0.72622 -0.68344,-1.56647 -0.68344,-2.50765 0,-1.65403 0.66972,-3.07252 2.02318,-4.25578 1.34629,-1.18294 3.23127,-1.77457 5.66184,-1.77457 2.69323,0 4.75071,0.61154 6.1594,1.82194 1.40834,1.21658 2.14046,2.81671 2.19567,4.80003 l -3.58345,0.23522 c -0.0555,-1.26395 -0.51127,-2.25904 -1.37405,-2.99181 -0.86345,-0.73929 -2.08557,-1.10224 -3.65989,-1.10224 -1.27018,0 -2.25088,0.28226 -2.95523,0.84024 -0.70434,0.5645 -1.04966,1.17641 -1.04966,1.83533 0,0.65894 0.30415,1.23685 0.9118,1.7344 0.40019,0.34303 1.44298,0.86737 3.13491,1.57332 2.80298,1.18294 4.57102,2.1176 5.29561,2.79644 1.16039,1.08919 1.74027,2.42046 1.74027,3.98007 0,1.03527 -0.32473,2.05716 -0.9807,3.05227 -0.65568,0.99475 -1.65012,1.7948 -2.9964,2.3933 -1.33976,0.59818 -2.92093,0.89417 -4.74386,0.89417 -2.47859,0 -4.59194,-0.59849 -6.33186,-1.78831 -1.73995,-1.19667 -2.56157,-3.13981 -2.46521,-5.82876 z"
         class="fil0"
         inkscape:connector-curvature="0"
         style="fill:#808080;fill-opacity:1" />
      <path
         d="m 305.04171,139.70038 8.95755,0 c 0,0 -0.66551,3.42796 -3.58726,6.08174 -1.52965,1.38879 -4.19141,2.5685 -6.59951,2.92945 -7.01301,1.05013 -0.9321,-2.65323 -1.93187,-2.35665 0,0 2.81059,-2.07934 3.16109,-6.65454 z m 83.72864,2.02624 6.58576,-0.0514 c 0.87046,0.1172 0.88697,0.81297 0.4985,1.34533 l -2.74786,5.13342 c -0.40966,0.53152 -0.68422,0.68421 -1.4397,0.78682 l -6.93019,0.0544 c -0.66855,0.003 -0.9145,-0.72493 -0.60499,-1.16099 l 2.82215,-5.16808 c 0.23688,-0.59893 0.84213,-0.91146 1.81633,-0.93952 z M 49.78159,139.806 c -1.184385,8.3e-4 -2.045105,0.8583 -3.104575,2.92195 l -14.883694,28.9456 c -0.817373,1.59292 -1.194816,2.65191 -0.958765,4.29161 0.258066,1.79624 2.88721,2.55232 5.88956,2.55671 l 41.592164,0.0456 c 1.771214,0.002 4.650345,-1.17019 6.209148,-2.32844 1.420434,-1.05672 1.564735,-0.45856 3.104574,0.68484 1.400068,1.03884 3.397442,1.75803 6.254805,1.68925 l 12.190023,0 c 1.89582,-0.17526 3.52861,-1.40207 4.61121,-2.4654 1.36237,-1.33679 1.15125,-1.48654 2.19146,0.27393 0.57225,0.96787 1.44746,2.01704 4.24596,2.19147 5.59808,0.34995 39.99422,0 39.99422,0 1.98881,0.12352 4.34046,-1.03598 5.61563,-2.14581 1.60118,-1.39292 1.73333,-1.09904 2.37408,-0.18262 0.26357,0.37608 1.86372,2.48437 5.15907,2.4654 l 28.39773,-0.18262 c 4.81042,-0.0267 6.45977,-0.65685 8.03537,-2.23713 1.57642,-1.58137 1.42442,-0.98224 2.23712,0.27394 0.61432,0.94915 2.52628,2.05859 4.88514,2.0545 l 13.28574,-0.0456 c 1.86366,-0.003 4.7042,0.15907 6.43743,-1.96319 1.73353,-2.12198 1.38899,-1.74487 3.01327,0.22828 1.32772,1.61439 3.72565,1.77282 5.3417,1.78057 l 21.18414,0.0913 c 4.54743,0.0231 6.07467,-1.27229 6.93964,-2.23713 0.86498,-0.96483 1.10308,-1.28461 2.23712,0.3196 1.13376,1.60365 5.93631,1.78056 6.07219,1.78056 l 23.19299,0 c 5.64844,-0.002 7.98971,-6.6657 7.98971,-6.6657 l 3.97204,-9.22242 c 0.21953,-0.77886 1.20299,-1.64197 2.10015,-1.55228 l 12.60092,-0.0457 c 1.64794,-0.013 2.2803,0.52874 1.36966,1.91753 l -8.26365,12.60092 c -2.10986,3.21584 1.46098,3.01327 1.46098,3.01327 l 6.98529,0.0456 c 1.47739,0.007 2.2856,-0.2867 2.92195,-1.68925 l 6.30047,-13.92493 c 0.59397,-1.65648 1.76934,-1.95735 2.46539,-1.96319 l 9.45069,-0.0913 c 2.01441,-0.0174 0.91311,2.0545 0.91311,2.0545 l -4.70252,9.08544 c -3.40979,6.6141 4.74818,6.43743 4.74818,6.43743 l 12.14436,0 c 2.35059,0 4.46077,-0.58168 6.2548,-2.41975 1.79487,-1.8386 1.62276,0.55581 3.24155,1.59795 1.61769,1.04296 4.29161,0.86746 4.29161,0.86746 l 11.64215,0.0456 c 3.60183,0.009 5.7914,-1.94948 6.5744,-2.69368 2.20644,-2.09556 2.5602,2.60544 8.21799,2.60237 l 26.38888,-0.0456 c 4.26954,-0.002 6.85405,-1.1551 7.94406,-2.19148 1.64246,-1.56238 1.73548,-0.88146 3.46982,0.86746 1.08505,1.09442 3.66021,1.41478 5.25038,1.41533 l 7.53316,0 c 4.406,9.6e-4 6.29188,-1.39608 7.35053,-2.28279 1.05866,-0.88614 1.05388,-1.73933 3.01326,0.13697 1.9594,1.87548 4.49614,2.00885 4.83949,2.00885 l 24.24307,0.0456 c 0.64653,-0.084 1.10253,-0.61238 1.36966,-1.05009 l 1.91754,-4.65685 c 0.24788,-0.46413 0.0428,-1.13064 -1.27836,-1.23271 l -21.41243,0.0456 c -1.03004,-0.0773 -1.21529,-1.08038 -0.59352,-1.82622 l 7.57881,-14.33584 c 0.39479,-0.56921 0.14595,-0.80274 -0.45655,-1.05007 l -7.4875,0 c -0.74915,0.008 -1.32093,-0.13028 -1.50663,0.45655 -0.25229,0.79179 -0.75324,2.23774 -1.91753,1.09574 -1.5525,-1.52415 -3.57844,-1.70022 -4.56556,-1.68926 l -11.82477,0.13697 c -5.7615,0.0636 -7.3962,4.38292 -7.3962,4.38292 l -5.06776,11.00299 c -0.52327,1.13705 -1.36633,1.82899 -3.28719,1.82622 l -29.21952,-0.0913 c -1.60421,0.0124 -0.54787,-1.78056 -0.54787,-1.78056 0,0 2.31365,-5.71636 3.01327,-7.30489 0.69963,-1.58824 1.55738,-1.73436 1.96318,-1.73491 l 10.82036,-0.0456 c 2.03284,-0.004 1.76434,1.23651 1.68925,1.36967 l -1.00443,1.73491 c -0.0955,0.1923 -0.2039,0.53354 0.18263,0.59351 l 8.17234,0.0456 c 0.42423,9.6e-4 1.24248,0.0253 1.59793,-0.8218 0.29933,-0.71448 1.04794,-1.84204 1.78057,-4.06334 1.67383,-5.07838 -5.52431,-5.15907 -5.52431,-5.15907 0,0 -16.05418,-0.10538 -20.72761,0.0456 -4.67782,0.15131 -6.3923,2.22863 -7.30487,3.88072 -0.91255,1.65207 -3.82413,8.47084 -4.47425,9.95289 -0.64926,1.48206 -1.60478,3.2742 -3.51547,3.2872 l -10.82035,0.0913 c -2.32199,0.0159 -0.95877,-2.19147 -0.95877,-2.19147 l 6.34612,-14.0619 c 0.34718,-0.58654 0.22962,-0.9546 -0.54787,-1.09573 l -6.25481,0.0456 c -1.08726,0.008 -1.25979,0.0654 -1.68924,0.91311 l -7.21358,14.24451 c -0.9486,1.87191 -2.10245,2.14636 -2.69367,2.14582 -0.59122,-9.7e-4 -8.8727,-0.019 -11.1856,0 -0.96763,0.008 -1.52547,-0.6692 -1.05008,-1.46098 l 4.61121,-7.67013 c 1.9272,-3.20429 -1.25133,-8.17233 -6.02652,-8.17233 l -10.45512,0 c -3.47886,0 -5.53677,2.43465 -7.0766,2.23712 -0.73621,-0.0947 -4.78233,-2.2088 -8.21799,-2.19147 l -9.08545,0.0457 c -3.73693,0.0187 -5.64488,0.97382 -7.12225,2.10015 -1.00803,0.76813 -2.28091,0.45699 -2.96761,-0.0913 -2.55418,-2.03917 -6.02725,-2.25886 -8.218,-2.23712 l -18.53612,0.18262 c -7.35719,0.0718 -8.12669,4.06334 -8.12669,4.06334 l -5.25038,11.41388 c -0.51695,1.11807 -1.31866,1.62542 -2.64802,1.68925 l -22.46251,0.0913 c -0.63084,0.002 -3.23626,-0.0176 -2.51105,-2.00885 0.48943,-1.3445 1.27862,-3.12079 2.23712,-4.06334 1.83284,-1.80477 3.73794,-2.59614 5.66129,-3.15023 2.88954,-0.83333 12.83377,-1.00115 14.975,-0.91311 2.14014,0.0892 3.33285,-1.50663 3.33285,-1.50663 0,0 1.3218,-2.01716 2.23712,-3.60678 0.91642,-1.58991 -1.00063,-2.10425 -1.68925,-2.10016 l -5.88956,0.0457 c -5.9054,0.0324 -10.72043,2.59859 -11.91609,3.24154 -1.19539,0.64295 -1.4393,0.005 -0.4109,-1.78057 0.57746,-1.0017 -0.11585,-1.74863 -1.59794,-1.7349 l -6.5744,0.0456 c -2.8205,0.0259 -3.51546,1.78056 -3.51546,1.78056 l -6.89399,14.42714 c -0.4644,0.97365 -1.24737,1.32264 -1.87187,1.32402 l -11.45954,0 c -1.99238,-0.003 -1.0958,-1.24913 -0.95876,-1.50664 l 9.31372,-17.39475 c 0.50208,-0.77747 1.01849,-1.03768 1.78056,-1.09573 l 6.43743,0 c 0.78793,-0.12215 1.39569,-0.2936 1.78057,-0.73049 l 1.18704,-2.8763 c 0.62975,-0.89824 0.46731,-1.36991 -0.50221,-1.46097 l -7.39619,0.0457 1.41532,-4.70252 c 0.58022,-1.93627 -0.27075,-1.91344 -1.68926,-1.91753 l -8.08102,0 c -0.87404,-0.002 -1.75769,0.62594 -1.96319,1.6436 l -1.73491,4.97645 -9.6333,0.0913 c -0.53455,-0.0187 -0.84125,9.6e-4 -1.1414,0.45656 l -2.28277,3.51547 c -0.32766,0.71476 0.12331,0.90654 1.41532,0.91311 l 7.8071,0.0456 c 1.69498,-0.013 1.27835,1.18704 1.27835,1.18704 l -9.03979,16.61861 c -0.58875,1.07902 -1.87508,1.89765 -3.15024,2.14581 0,0 -27.64962,-0.0217 -30.36091,0 -2.71128,0.0209 -1.68925,-1.18705 -1.68925,-1.18705 l 4.29162,-7.62446 c 0.62892,-1.11835 0.99591,-1.67742 1.87188,-1.68925 l 9.72462,-0.13697 c 1.56625,-0.0233 0.96789,1.10744 0.77614,1.50663 l -1.14138,2.41974 9.99855,-0.0456 2.8763,-4.33728 c 2.64772,-4.79695 -3.39977,-6.3266 -6.71136,-6.30045 l -17.30344,0.13696 c -7.12471,0.055 -8.26364,3.74375 -8.26364,3.74375 l -4.65687,11.27691 c -1.08809,2.63425 -6.07218,2.28278 -6.07218,2.28278 0,0 -30.03742,-0.0679 -32.91762,-0.0456 -2.88131,0.0226 -3.63739,-0.49869 -3.56112,-2.10015 0.0762,-1.60146 3.92637,-1.23269 3.92637,-1.23269 l 19.26662,-0.18262 c 2.32281,-0.0223 4.30473,-1.38703 4.61121,-2.19147 0.30676,-0.805 0.93327,-1.58768 2.4654,-6.34612 1.53158,-4.75952 -3.10458,-5.20472 -3.10458,-5.20472 0,0 -19.52827,-0.216 -24.60832,0.0913 -5.08003,0.30731 -6.8885,2.86287 -7.71578,4.47424 -0.82727,1.61163 -4.90306,10.4784 -5.66128,11.64215 -0.61351,0.63965 -1.39136,0.99946 -2.41974,1.00442 l -9.542,0.0456 c -2.270552,0.21102 -2.643553,-0.70362 -1.963191,-2.23712 L 112.0557,140.85578 c 0.19919,-0.57857 -0.29982,-0.80912 -1.05008,-0.91311 l -7.39619,0.0456 c -0.64268,-0.058 -1.35827,0.28806 -1.73491,0.86746 l -9.268067,18.07958 -5.433006,10.91167 c -0.739794,0.88313 -1.493658,1.77974 -2.556708,1.78056 l -38.350623,-0.0455 c -1.443269,0 -2.504654,-0.48131 -1.826221,-1.36967 l 4.793828,-9.35937 24.106106,-0.0913 c 1.050399,-0.0729 1.894288,-0.44919 2.328431,-1.14139 l 1.460977,-4.2003 c 0.561233,-1.23335 0.04324,-1.69284 -1.050077,-1.6436 l -23.832173,0.0456 3.972028,-6.80268 23.649552,-0.18262 c 1.135952,0.0507 1.987774,-0.26655 2.511052,-1.00442 l 3.424163,-4.29161 c 0.81353,-1.6188 -1.096769,-1.73651 -2.191464,-1.73491 l -33.830728,0 z m 408.20586,20.27105 9.9529,0 c 1.10459,0.0866 1.46964,0.55668 1.05008,1.41531 l -3.24154,8.99414 c -0.22588,0.60277 -0.77746,1.19171 -1.87188,1.2327 l -10.45511,-0.0456 c -1.58028,-0.0239 -1.87251,-0.99177 -1.59794,-1.91754 l 2.8763,-7.71578 c 0.22944,-1.22812 1.42356,-1.9995 3.28719,-1.96318 z m -157.51149,0.63917 c 1.10542,0.0867 1.42315,0.55696 1.00442,1.41532 l -3.19588,8.49192 c -0.22586,0.60196 -0.82311,1.10095 -1.91753,1.1414 l -10.45512,0 c -1.58109,-0.0245 -1.8725,-0.90045 -1.59793,-1.82623 l 2.92195,-7.25923 c 0.2297,-1.22812 1.37762,-1.90709 3.24154,-1.87187 l 9.99855,-0.0913 z m -159.79426,0.13697 c 1.12936,0.0195 1.42747,0.6586 1.2327,1.00442 l -0.77614,1.46097 c -0.15434,0.47733 -0.7926,0.83833 -1.82622,0.77615 l -11.91609,0.0456 c -1.28178,-0.002 -1.22281,-0.49607 -1.18704,-0.77614 l 1.00442,-1.82622 c 0.16617,-0.4534 0.4441,-0.60013 1.55228,-0.59352 l 11.91609,-0.0913 z"
         style="fill:#00599e;fill-opacity:1;stroke:none"
         id="path3095"
         inkscape:connector-curvature="0" />
      <path
         inkscape:connector-curvature="0"
         d="m 712.49468,247.75596 -2.25128,7.78032 -6.88894,0 2.25101,-7.78032 6.88921,0 z m -17.94893,-2.67551 0.41764,-10.13725 -0.0642,0 -5.09516,10.13725 4.74161,0 z m 6.6185,10.45583 -7.00255,0 0.18707,-4.55402 -7.53435,0 -2.30246,4.55402 -7.69613,0 16.1392,-27.8226 7.61606,0 0.59316,27.8226 z m -24.54128,-7.78032 -2.25128,7.78032 -6.88894,0 2.25101,-7.78032 6.88921,0 z m -7.40203,-12.32057 -6.7335,0.44074 c 0.11746,-2.41664 -0.86799,-3.62852 -2.95585,-3.62852 -0.8559,0 -1.53186,0.22036 -2.03779,0.65451 -0.50568,0.44073 -0.79482,0.9585 -0.8625,1.56816 -0.0486,0.43992 0.0929,0.8614 0.4146,1.26252 0.32243,0.39588 1.13761,0.90706 2.44635,1.52882 1.65951,0.80968 2.98997,1.5745 4.00321,2.29337 1.01217,0.72549 1.80203,1.65841 2.3685,2.81143 0.56701,1.15329 0.75795,2.58473 0.56701,4.30805 -0.17964,1.61963 -0.72356,3.12892 -1.63171,4.52816 -0.90267,1.39292 -2.11731,2.54622 -3.62825,3.45246 -1.51562,0.90046 -3.57267,1.35412 -6.18326,1.35412 -3.66539,0 -6.17637,-0.84846 -7.52308,-2.5396 -1.34504,-1.69665 -1.87355,-3.87367 -1.57945,-6.52991 l 0.0717,-0.64735 6.77779,-0.5508 c -0.19257,1.73627 -0.0117,2.96028 0.55106,3.67365 0.55491,0.71888 1.39262,1.07515 2.51784,1.07515 1.13599,0 2.03561,-0.29849 2.6934,-0.89441 0.66334,-0.59589 1.03417,-1.26966 1.1181,-2.02734 0.063,-0.57003 -0.0672,-1.09523 -0.39561,-1.58081 -0.32357,-0.47952 -1.19181,-1.04325 -2.60154,-1.684 -3.23315,-1.47078 -5.2305,-2.82434 -5.99203,-4.06181 -0.7607,-1.24409 -1.04794,-2.73331 -0.85425,-4.4825 0.17661,-1.59403 0.70899,-3.04555 1.59759,-4.36665 0.88866,-1.31479 2.07772,-2.33217 3.57461,-3.064 1.49004,-0.72521 3.22602,-1.0878 5.20084,-1.0878 6.25451,0 9.283,2.73329 9.07612,8.19436 z m -44.02152,20.57328 -61.26311,0 27.97393,-67.23866 60.46527,0 -5.32077,14.44915 -34.12555,0 -4.77602,12.12166 30.48299,0 -4.29733,12.19045 -30.43072,0 -6.61657,15.15071 31.88884,0 z m -163.17203,-67.23866 29.63287,0 -22.83472,55.10048 31.26707,0 -5.99756,12.13818 -58.79804,0 z m 63.67864,0 29.63563,0 -22.83474,55.10048 31.26708,0 -5.99756,12.13818 -58.79806,0 z m -95.35618,67.2381 -28.12278,0 0.46276,-13.86123 -30.68383,0 -8.08982,13.86123 -18.63645,0 48.54444,-67.23948 30.37129,0 6.15439,67.23948 z m -28.91977,-25.83845 -0.10651,-26.78515 -19.3537,26.78515 19.46014,0 z m -105.35617,25.83901 -5.19147,-67.23866 26.89823,0 0.17882,51.02874 36.44478,-51.02874 22.74394,0 -51.11127,67.23866 z"
         style="fill:#00599e;fill-opacity:1;stroke:none"
         id="_164311712" />
    </g>
  </g>
</svg>
