<?xml version="1.0" encoding="UTF-8" standalone="no"?>
<svg
   xmlns:dc="http://purl.org/dc/elements/1.1/"
   xmlns:cc="http://creativecommons.org/ns#"
   xmlns:rdf="http://www.w3.org/1999/02/22-rdf-syntax-ns#"
   xmlns:svg="http://www.w3.org/2000/svg"
   xmlns="http://www.w3.org/2000/svg"
   xmlns:sodipodi="http://sodipodi.sourceforge.net/DTD/sodipodi-0.dtd"
   xmlns:inkscape="http://www.inkscape.org/namespaces/inkscape"
   width="168.36858mm"
   height="50.517845mm"
   viewBox="0 0 168.36858 50.517845"
   version="1.1"
   id="svg8"
   inkscape:version="1.0.1 (3bc2e813f5, 2020-09-07)"
   sodipodi:docname="logo_web.svg">
  <defs
     id="defs2">
    <style
       type="text/css"
       id="style3089">
   
    .str0 {stroke:white;stroke-width:0.0762}
    .fil2 {fill:none}
    .fil0 {fill:black}
    .fil1 {fill:#191919}
   
  </style>
    <style
       id="style3947"
       type="text/css">
   
    .str0 {stroke:#1F1A17;stroke-width:0.0762}
    .fil2 {fill:none}
    .fil3 {fill:#00599E}
    .fil0 {fill:#DA2724}
    .fil1 {fill:white}
   
  </style>
    <linearGradient
       id="linearGradient3807">
      <stop
         style="stop-color:#0000ff;stop-opacity:1;"
         offset="0"
         id="stop3809" />
      <stop
         id="stop3817"
         offset="0.5"
         style="stop-color:#0000bf;stop-opacity:0.74901961;" />
      <stop
         id="stop3815"
         offset="1"
         style="stop-color:#000080;stop-opacity:0.49803922;" />
    </linearGradient>
    <style
       id="style3057"
       type="text/css">
   
    .fil3 {fill:#00599E}
    .fil0 {fill:#D2D3D6}
    .fil2 {fill:#DA2724}
    .fil1 {fill:white}
   
  </style>
  </defs>
  <sodipodi:namedview
     id="base"
     pagecolor="#ffffff"
     bordercolor="#666666"
     borderopacity="1.0"
     inkscape:pageopacity="0.0"
     inkscape:pageshadow="2"
     inkscape:zoom="0.7"
     inkscape:cx="183.68749"
     inkscape:cy="142.90638"
     inkscape:document-units="mm"
     inkscape:current-layer="layer1"
     showgrid="false"
     inkscape:snap-global="true"
     inkscape:window-width="1920"
     inkscape:window-height="1006"
     inkscape:window-x="0"
     inkscape:window-y="25"
     inkscape:window-maximized="1"
     fit-margin-top="0"
     fit-margin-left="0"
     fit-margin-right="0"
     fit-margin-bottom="0"
     inkscape:document-rotation="0"
     inkscape:snap-page="true" />
  <metadata
     id="metadata5">
    <rdf:RDF>
      <cc:Work
         rdf:about="">
        <dc:format>image/svg+xml</dc:format>
        <dc:type
           rdf:resource="http://purl.org/dc/dcmitype/StillImage" />
        <dc:title />
      </cc:Work>
    </rdf:RDF>
  </metadata>
  <g
     inkscape:label="Capa 1"
     inkscape:groupmode="layer"
     id="layer1"
     transform="translate(-17.590141,-109.92042)">
    <rect
       style="fill:#ffffff;stroke:none;stroke-width:0.264583"
       id="rect20"
       width="168.36858"
       height="50.517845"
       x="17.590141"
       y="109.92042" />
    <g
       id="g1144"
       style="fill:#000000"
       transform="translate(0,7.8972647)">
      <path
         d="m 144.72518,112.1969 h 1.91797 c 0,0 -0.14249,0.97217 -0.7681,1.72476 -0.32752,0.39387 -0.89745,0.72843 -1.41306,0.83079 -1.50161,0.29782 -0.19959,-0.75244 -0.41365,-0.66834 0,0 0.60179,-0.58969 0.67684,-1.88721 z m 17.92775,0.57463 1.41012,-0.0146 c 0.18639,0.0332 0.18993,0.23056 0.10675,0.38153 l -0.58836,1.45582 c -0.0877,0.15073 -0.14651,0.19404 -0.30827,0.22314 l -1.48387,0.0154 c -0.14315,8.4e-4 -0.19582,-0.2056 -0.12954,-0.32925 l 0.60426,-1.46566 c 0.0507,-0.16985 0.18033,-0.25847 0.38891,-0.26644 z m -72.583364,-0.54467 c -0.253598,2.3e-4 -0.437893,0.24341 -0.664744,0.82865 l -3.186856,8.20889 c -0.175014,0.45174 -0.255831,0.75208 -0.205289,1.21709 0.05526,0.50941 0.618202,0.72382 1.261058,0.72506 l 8.905602,0.013 c 0.379248,5.7e-4 0.99572,-0.33186 1.329487,-0.66034 0.304139,-0.29968 0.335036,-0.13005 0.664742,0.19422 0.299782,0.29461 0.727454,0.49858 1.339259,0.47906 h 2.610095 c 0.40593,-0.0497 0.75553,-0.39762 0.98734,-0.69918 0.29171,-0.3791 0.24651,-0.42157 0.46923,0.0776 0.12254,0.27448 0.30993,0.57203 0.90914,0.62149 1.19864,0.0992 8.56346,0 8.56346,0 0.42582,0.035 0.92936,-0.29381 1.2024,-0.60856 0.34284,-0.39501 0.37113,-0.31168 0.50833,-0.0518 0.0564,0.10663 0.39906,0.70455 1.10464,0.69916 l 6.08045,-0.0518 c 1.02999,-0.007 1.38315,-0.18628 1.72051,-0.63445 0.33754,-0.44848 0.305,-0.27856 0.47901,0.0776 0.13153,0.26918 0.54092,0.5838 1.04599,0.58264 l 2.8447,-0.013 c 0.39905,-8.5e-4 1.00727,0.0451 1.37837,-0.55674 0.37118,-0.60179 0.29741,-0.49485 0.6452,0.0647 0.28428,0.45783 0.79773,0.50276 1.14375,0.50496 l 4.53589,0.0258 c 0.97368,0.007 1.30069,-0.36081 1.48589,-0.63443 0.18522,-0.27363 0.23619,-0.36432 0.47901,0.0907 0.24276,0.45479 1.27107,0.50495 1.30016,0.50495 h 4.96603 c 1.20942,-5.6e-4 1.71073,-1.89036 1.71073,-1.89036 l 0.85048,-2.61547 c 0.047,-0.22087 0.25758,-0.46564 0.44968,-0.44022 l 2.69808,-0.013 c 0.35286,-0.003 0.48826,0.14995 0.29327,0.54381 l -1.76939,3.57357 c -0.45176,0.912 0.31282,0.85456 0.31282,0.85456 l 1.49567,0.0129 c 0.31634,0.002 0.48939,-0.0813 0.62564,-0.47908 l 1.34904,-3.94906 c 0.12718,-0.46977 0.37884,-0.55509 0.52788,-0.55674 l 2.02356,-0.0259 c 0.43132,-0.005 0.19551,0.58264 0.19551,0.58264 l -1.0069,2.57661 c -0.73008,1.87573 1.01668,1.82564 1.01668,1.82564 h 2.60031 c 0.50331,0 0.95514,-0.16496 1.33926,-0.68624 0.38431,-0.52142 0.34746,0.15762 0.69407,0.45317 0.34639,0.2958 0.91892,0.24602 0.91892,0.24602 l 2.49278,0.0129 c 0.77121,0.002 1.24004,-0.55288 1.4077,-0.76392 0.47243,-0.59429 0.54818,0.73889 1.75961,0.73802 l 5.65032,-0.013 c 0.91418,-5.7e-4 1.46757,-0.32758 1.70096,-0.6215 0.35168,-0.44308 0.3716,-0.24998 0.74294,0.24601 0.23233,0.31037 0.78372,0.40122 1.12421,0.40139 h 1.61297 c 0.9434,2.7e-4 1.3472,-0.39594 1.57388,-0.6474 0.22668,-0.2513 0.22565,-0.49326 0.64519,0.0389 0.41955,0.53188 0.96271,0.5697 1.03622,0.5697 l 5.19086,0.013 c 0.13843,-0.0239 0.23608,-0.17366 0.29327,-0.2978 l 0.41058,-1.32067 c 0.0531,-0.13162 0.009,-0.32064 -0.27373,-0.34958 l -4.58476,0.013 c -0.22055,-0.022 -0.26022,-0.30639 -0.12708,-0.5179 l 1.62275,-4.06561 c 0.0845,-0.16143 0.0312,-0.22765 -0.0978,-0.2978 h -1.6032 c -0.1604,0.002 -0.28283,-0.037 -0.32261,0.12948 -0.0539,0.22455 -0.16128,0.63461 -0.41056,0.31076 -0.33242,-0.43226 -0.76621,-0.48219 -0.97757,-0.47908 l -2.53189,0.0389 c -1.23364,0.0181 -1.58365,1.24299 -1.58365,1.24299 l -1.08509,3.12041 c -0.11205,0.32247 -0.29256,0.51869 -0.70384,0.51791 l -6.25642,-0.0259 c -0.34349,0.003 -0.11731,-0.50496 -0.11731,-0.50496 0,0 0.4954,-1.62114 0.6452,-2.07166 0.1498,-0.45041 0.33346,-0.49184 0.42034,-0.49201 l 2.31684,-0.013 c 0.43526,-0.001 0.37777,0.35067 0.36169,0.38844 l -0.21506,0.49202 c -0.0205,0.0545 -0.0436,0.1513 0.0391,0.1683 l 1.74984,0.013 c 0.0908,2.6e-4 0.26603,0.007 0.34215,-0.23307 0.0641,-0.20263 0.22438,-0.52239 0.38125,-1.15234 0.35839,-1.44022 -1.18286,-1.46311 -1.18286,-1.46311 0,0 -3.43748,-0.03 -4.43813,0.013 -1.00161,0.0428 -1.36871,0.63202 -1.5641,1.10056 -0.1954,0.46851 -0.81881,2.4023 -0.95802,2.82261 -0.13902,0.4203 -0.34361,0.92855 -0.75273,0.93223 l -2.31681,0.0259 c -0.49718,0.005 -0.20529,-0.62149 -0.20529,-0.62149 l 1.35881,-3.98791 c 0.0743,-0.16634 0.0491,-0.27073 -0.11731,-0.31075 l -1.33926,0.013 c -0.23281,0.002 -0.26974,0.0185 -0.3617,0.25895 l -1.54455,4.0397 c -0.20311,0.53087 -0.45017,0.6087 -0.57676,0.60855 -0.12659,-2.8e-4 -1.8998,-0.006 -2.39504,0 -0.20718,0.002 -0.32663,-0.18979 -0.22483,-0.41433 l 0.98733,-2.17523 c 0.41265,-0.90872 -0.26792,-2.31764 -1.29038,-2.31764 h -2.23862 c -0.74487,0 -1.18551,0.69044 -1.51522,0.63444 -0.15764,-0.0269 -1.02398,-0.62642 -1.75962,-0.6215 l -1.94535,0.013 c -0.80014,0.006 -1.20866,0.27617 -1.525,0.59559 -0.21583,0.21785 -0.48838,0.1296 -0.63542,-0.0258 -0.54689,-0.5783 -1.29053,-0.64061 -1.75961,-0.63444 l -3.9689,0.0518 c -1.5753,0.0204 -1.74007,1.15235 -1.74007,1.15235 l -1.12419,3.23693 c -0.11069,0.31709 -0.28236,0.46097 -0.567,0.47908 l -4.80961,0.0258 c -0.13507,5.8e-4 -0.69294,-0.005 -0.53765,-0.5697 0.1048,-0.38129 0.27377,-0.88504 0.479,-1.15234 0.39245,-0.51183 0.80036,-0.73626 1.21219,-0.8934 0.61869,-0.23633 2.74792,-0.28392 3.20639,-0.25895 0.45825,0.0252 0.71363,-0.42728 0.71363,-0.42728 0,0 0.28303,-0.57206 0.479,-1.02288 0.19622,-0.45088 -0.21424,-0.59674 -0.36169,-0.59559 l -1.26106,0.013 c -1.26445,0.009 -2.29543,0.73694 -2.55144,0.91928 -0.25596,0.18234 -0.30818,10e-4 -0.0879,-0.50496 0.12365,-0.28408 -0.0249,-0.4959 -0.34213,-0.49201 l -1.4077,0.013 c -0.60391,0.007 -0.75272,0.50497 -0.75272,0.50497 l -1.47612,4.09148 c -0.0995,0.27613 -0.26709,0.3751 -0.40081,0.37549 h -2.45368 c -0.4266,-8.5e-4 -0.23462,-0.35425 -0.20529,-0.42728 l 1.99424,-4.93309 c 0.10749,-0.22049 0.21807,-0.29429 0.38124,-0.31075 h 1.37837 c 0.1687,-0.0346 0.29883,-0.0833 0.38124,-0.20717 l 0.25418,-0.8157 c 0.13484,-0.25475 0.10007,-0.3885 -0.10755,-0.41433 l -1.58364,0.013 0.30304,-1.33362 c 0.12424,-0.54911 -0.058,-0.54265 -0.3617,-0.5438 h -1.73028 c -0.18715,-5.7e-4 -0.37636,0.17751 -0.42036,0.46612 l -0.37147,1.4113 -2.06266,0.0259 c -0.11445,-0.006 -0.18013,2.7e-4 -0.24439,0.12948 l -0.48878,0.99696 c -0.0702,0.20271 0.0264,0.2571 0.30304,0.25897 l 1.67164,0.013 c 0.36292,-0.003 0.27371,0.33664 0.27371,0.33664 l -1.93557,4.713 c -0.12606,0.30601 -0.40148,0.53817 -0.67452,0.60854 0,0 -5.92026,-0.006 -6.5008,0 -0.58054,0.006 -0.36169,-0.33664 -0.36169,-0.33664 l 0.9189,-2.16228 c 0.13466,-0.31716 0.21324,-0.47571 0.40081,-0.47906 l 2.0822,-0.0389 c 0.33537,-0.007 0.20725,0.31407 0.1662,0.42728 l -0.2444,0.68623 2.14087,-0.013 0.61585,-1.23003 c 0.56694,-1.36041 -0.72793,-1.7942 -1.43701,-1.78679 l -3.70496,0.0389 c -1.52553,0.0156 -1.76939,1.06171 -1.76939,1.06171 l -0.99712,3.19811 c -0.23298,0.74706 -1.30016,0.64738 -1.30016,0.64738 0,0 -6.43153,-0.0192 -7.04823,-0.013 -0.61694,0.006 -0.77883,-0.14144 -0.7625,-0.5956 0.0163,-0.45417 0.84071,-0.34959 0.84071,-0.34959 l 4.12532,-0.0518 c 0.49735,-0.006 0.92171,-0.39334 0.98734,-0.62149 0.0657,-0.22829 0.19982,-0.45025 0.52788,-1.79974 0.32794,-1.34977 -0.66475,-1.47603 -0.66475,-1.47603 0,0 -4.18134,-0.0613 -5.26907,0.0259 -1.08771,0.0871 -1.47494,0.8119 -1.65208,1.26887 -0.17713,0.45707 -1.04982,2.97165 -1.21217,3.30169 -0.13138,0.18139 -0.29792,0.28343 -0.51812,0.28484 l -2.0431,0.013 c -0.48617,0.0599 -0.56604,-0.19955 -0.42036,-0.63443 l 2.87404,-8.09235 c 0.0426,-0.16408 -0.0642,-0.22948 -0.22484,-0.25896 l -1.58365,0.0129 c -0.13761,-0.0164 -0.29083,0.0818 -0.37147,0.24601 l -1.984463,5.12732 -1.163296,3.09452 c -0.158403,0.25045 -0.319818,0.50473 -0.547435,0.50496 l -8.211533,-0.013 c -0.30903,0 -0.53629,-0.13649 -0.391027,-0.38843 l 1.026443,-2.65429 5.161535,-0.0259 c 0.224908,-0.0207 0.4056,-0.12739 0.498557,-0.32369 l 0.312821,-1.1912 c 0.12017,-0.34977 0.0092,-0.48008 -0.224841,-0.46612 l -5.10288,0.013 0.85048,-1.92922 5.063779,-0.0518 c 0.243226,0.0144 0.425617,-0.0756 0.537659,-0.28485 l 0.733173,-1.21709 c 0.17419,-0.45908 -0.234837,-0.49246 -0.469231,-0.49201 h -7.243775 z m 87.403944,5.7488 h 2.13109 c 0.23651,0.0246 0.31468,0.15788 0.22484,0.40138 l -0.69407,2.55072 c -0.0483,0.17094 -0.16646,0.33796 -0.4008,0.34958 l -2.23861,-0.0129 c -0.33837,-0.007 -0.40094,-0.28127 -0.34216,-0.5438 l 0.61587,-2.18817 c 0.0491,-0.34831 0.30481,-0.56706 0.70384,-0.55676 z m -33.72594,0.18128 c 0.2367,0.0246 0.30472,0.15794 0.21507,0.40137 l -0.68429,2.40828 c -0.0483,0.17072 -0.17624,0.31223 -0.41058,0.3237 h -2.23862 c -0.33855,-0.007 -0.40094,-0.25536 -0.34215,-0.51791 l 0.62565,-2.0587 c 0.0492,-0.34828 0.29497,-0.54084 0.69406,-0.53085 l 2.14086,-0.0259 z m -34.21471,0.0389 c 0.2418,0.006 0.30564,0.18678 0.26394,0.28485 l -0.16618,0.41433 c -0.0331,0.13536 -0.16972,0.23774 -0.39103,0.22011 l -2.55144,0.013 c -0.27445,-5.6e-4 -0.26183,-0.14069 -0.25417,-0.22011 l 0.21507,-0.51791 c 0.0356,-0.12857 0.0951,-0.17019 0.33236,-0.16832 z"
         style="fill:#000000;fill-opacity:1;stroke:none;stroke-width:0.24147704"
         id="path3095"
         inkscape:connector-curvature="0" />
      <path
         inkscape:connector-curvature="0"
         d="m 183.9361,140.59927 -0.48227,1.66668 h -1.47573 l 0.4822,-1.66668 z m -3.84499,-0.57316 0.0894,-2.17158 h -0.0138 l -1.09147,2.17158 h 1.01574 z m 1.4178,2.23984 h -1.50008 l 0.0401,-0.97556 h -1.614 l -0.49323,0.97556 h -1.64865 l 3.45732,-5.96011 h 1.63149 z m -5.2572,-1.66668 -0.48226,1.66668 h -1.47573 l 0.48221,-1.66668 z m -1.58565,-2.6393 -1.44243,0.0944 c 0.0252,-0.51768 -0.18594,-0.77729 -0.63319,-0.77729 -0.18335,0 -0.32816,0.0472 -0.43654,0.1402 -0.10832,0.0944 -0.17026,0.20534 -0.18477,0.33593 -0.0104,0.0942 0.0198,0.18453 0.0888,0.27046 0.0691,0.0849 0.2437,0.1943 0.52406,0.3275 0.35549,0.17345 0.64051,0.33728 0.85755,0.49129 0.21683,0.15541 0.38603,0.35525 0.50738,0.60225 0.12146,0.24706 0.16237,0.5537 0.12146,0.92286 -0.0385,0.34696 -0.15499,0.67027 -0.34953,0.97002 -0.19338,0.29839 -0.45357,0.54545 -0.77724,0.73958 -0.32468,0.19289 -0.76534,0.29009 -1.32457,0.29009 -0.78519,0 -1.3231,-0.18177 -1.61158,-0.54404 -0.28813,-0.36346 -0.40136,-0.82981 -0.33835,-1.39883 l 0.0154,-0.13868 1.45193,-0.11799 c -0.0413,0.37194 -0.003,0.63415 0.11805,0.78697 0.11886,0.154 0.29832,0.23031 0.53937,0.23031 0.24334,0 0.43606,-0.064 0.57697,-0.19159 0.14209,-0.12765 0.22154,-0.27198 0.23952,-0.43429 0.0135,-0.12212 -0.0144,-0.23462 -0.0847,-0.33865 -0.0693,-0.10272 -0.2553,-0.22348 -0.5573,-0.36073 -0.6926,-0.31507 -1.12046,-0.60503 -1.2836,-0.87013 -0.16296,-0.2665 -0.22448,-0.58552 -0.183,-0.96023 0.0379,-0.34147 0.15188,-0.65241 0.34224,-0.93541 0.19037,-0.28166 0.44509,-0.4996 0.76574,-0.65637 0.3192,-0.15535 0.69108,-0.23303 1.11412,-0.23303 1.33983,0 1.98859,0.58553 1.94427,1.75539 z m -9.43021,4.40718 h -13.12368 l 5.99252,-14.40377 h 12.95278 l -1.13981,3.09528 h -7.31032 l -1.0231,2.59668 h 6.53 l -0.92056,2.61142 h -6.51882 l -1.4174,3.24556 h 6.83119 z m -34.95444,-14.40377 h 6.3479 l -4.89162,11.80354 h 6.69798 l -1.28479,2.60023 h -12.59562 z m 13.64113,0 h 6.34849 l -4.89161,11.80354 h 6.69798 l -1.2848,2.60023 h -12.59562 z m -20.42705,14.40365 h -6.02441 l 0.0991,-2.96934 h -6.57305 l -1.73299,2.96934 h -3.99226 l 10.39911,-14.40394 h 6.50609 z m -6.19514,-5.53507 -0.0228,-5.73787 -4.14592,5.73787 z m -22.569229,5.53519 -1.112108,-14.40377 h 5.762096 l 0.03831,10.9313 7.807141,-10.9313 h 4.87216 l -10.94896,14.40377 z"
         style="fill:#000000;fill-opacity:1;stroke:none;stroke-width:0.24147704"
         id="_164311712" />
    </g>
    <g
       id="g1148">
      <path
         id="path1113"
         transform="scale(0.26458333)"
         d="m 230.67773,415.44727 -5.26757,0.0547 -5.39454,0.29493 -5.51171,0.53906 -5.62305,0.78711 -5.72266,1.03515 -5.81836,1.29297 -5.90429,1.54883 -5.98438,1.8125 -6.05469,2.07617 -6.11914,2.34766 -6.17382,2.61914 -6.22266,2.89453 -6.26172,3.17773 -6.29297,3.46289 -6.32031,3.74805 -5.82422,3.7168 -5.58594,3.7793 -5.35742,3.84765 -5.125,3.9043 -4.89062,3.96289 -4.66211,4.01172 -4.42969,4.05859 -4.19727,4.09961 -3.96484,4.13672 -3.730469,4.16797 -3.5,4.19726 -3.267578,4.21875 -3.03125,4.23829 -2.798828,4.25 -2.564453,4.26171 -2.328125,4.26368 -2.095703,4.26562 -1.857422,4.25977 -1.619141,4.25195 -1.382812,4.23437 -1.142578,4.21876 -0.904297,4.19531 -0.664063,4.16211 -0.419922,4.13086 -0.179687,4.08789 0.06445,4.04297 0.310547,3.99218 0.554687,3.9336 0.800782,3.86914 1.046875,3.79883 1.292968,3.7207 1.544922,3.64453 1.814453,3.53906 2.09375,3.375 2.357422,3.19532 2.611328,3.01171 2.859375,2.81836 3.09375,2.62305 3.320313,2.41992 3.533203,2.21485 3.744141,2.00781 3.943362,1.79492 4.13086,1.57812 4.31641,1.35938 4.48828,1.13672 4.6582,0.9082 4.81641,0.68164 4.96875,0.44532 5.11328,0.20898 5.25,-0.0293 5.38281,-0.27929 5.50391,-0.5293 5.61914,-0.7793 5.73047,-1.03711 5.83203,-1.29883 5.92773,-1.56445 6.01367,-1.83594 6.09571,-2.10937 6.16992,-2.38867 6.23437,-2.66992 6.29297,-2.95899 6.34766,-3.25 6.39062,-3.54687 6.42383,-3.84375 5.59961,-3.57813 5.39453,-3.66211 5.18946,-3.74609 4.98242,-3.82032 4.77539,-3.88867 4.5625,-3.95507 4.35351,-4.01368 4.13868,-4.0664 3.92773,-4.11524 3.70898,-4.15625 3.49219,-4.19336 3.27344,-4.22461 3.05273,-4.25195 2.83203,-4.27148 2.60352,-4.28516 2.38281,-4.29297 2.15039,-4.30273 1.92188,-4.29688 1.6914,-4.29297 1.45704,-4.28125 1.2207,-4.25976 0.98047,-4.24024 0.74219,-4.21093 0.49804,-4.17579 0.25196,-4.13281 0.002,-4.08594 -0.24805,-4.0332 -0.50195,-3.97266 -0.75781,-3.90429 -1.01563,-3.82422 -1.27734,-3.74609 -1.53907,-3.66016 -1.82031,-3.54102 -2.10742,-3.37109 -2.37891,-3.18555 -2.63672,-2.99218 -2.88671,-2.79688 -3.125,-2.5957 -3.35547,-2.39063 -3.57032,-2.18164 -3.78124,-1.9707 -3.97657,-1.75781 -4.16992,-1.54297 -4.34961,-1.32031 -4.52344,-1.09961 -4.68945,-0.87696 -4.84375,-0.64648 -4.99414,-0.41797 z m 1.44922,15.15234 4.50196,0.16016 4.37695,0.34179 4.23633,0.51758 4.08789,0.69531 3.92773,0.86719 3.75586,1.03906 3.57617,1.20899 3.38282,1.37695 3.18554,1.54102 2.97266,1.70117 2.75586,1.85937 2.53125,2.01563 2.29687,2.16797 2.0586,2.32226 1.8164,2.47656 1.57227,2.64454 1.34375,2.79492 1.12891,2.91406 0.90625,3.01953 0.68554,3.11719 0.46289,3.21094 0.24024,3.30078 0.0156,3.38281 -0.20508,3.46289 -0.43164,3.5332 -0.65625,3.59766 -0.88476,3.6543 -1.10938,3.70898 -1.33789,3.75 -1.5625,3.78906 -1.79101,3.82032 -2.01953,3.84179 -2.24415,3.85743 -2.47265,3.86523 -2.69922,3.86914 -2.92383,3.86328 -3.15039,3.85156 -3.375,3.83008 -3.60156,3.80664 -3.82227,3.76953 -4.04882,3.73438 -4.27344,3.68555 -4.49219,3.63086 -4.7168,3.57031 -4.93945,3.5039 -5.16016,3.42969 -5.37695,3.34766 -5.60156,3.25976 -5.69727,3.09766 -5.67187,2.86914 -5.63867,2.64258 -5.59571,2.41797 -5.54883,2.19922 -5.49414,1.97851 -5.42968,1.76172 -5.36133,1.54883 -5.28321,1.33984 -5.19726,1.12891 -5.10547,0.92383 -5.00781,0.72265 -4.89844,0.52149 -4.78516,0.32617 -4.66406,0.13086 -4.53515,-0.0605 -4.39649,-0.25 -4.2539,-0.43359 -4.10157,-0.61524 -3.94336,-0.79492 -3.77539,-0.96875 -3.60547,-1.13867 -3.42578,-1.30469 -3.23828,-1.4707 -3.044921,-1.62695 -2.849609,-1.78516 -2.644531,-1.9375 -2.439453,-2.08398 -2.22461,-2.23243 -2.011718,-2.37695 -1.789063,-2.51953 -1.568359,-2.66797 -1.34961,-2.80078 -1.134765,-2.90039 -0.910157,-2.98828 -0.691406,-3.07813 -0.466797,-3.16015 -0.25,-3.24219 -0.02344,-3.31836 0.201172,-3.38672 0.425781,-3.45703 0.652344,-3.51758 0.882812,-3.57617 1.109375,-3.625 1.339844,-3.66992 1.572266,-3.71485 1.802734,-3.74414 2.037109,-3.77343 2.269531,-3.79493 2.501954,-3.81054 2.734375,-3.82032 2.96875,-3.82617 3.203132,-3.82422 3.4375,-3.8164 3.66992,-3.80274 3.90429,-3.78515 4.14063,-3.75782 4.37109,-3.73046 4.60742,-3.69141 4.8418,-3.65039 5.07422,-3.60352 5.31055,-3.54882 5.54101,-3.49024 5.77735,-3.42578 5.11328,-2.85156 5.14453,-2.65625 5.17578,-2.46094 5.19531,-2.26953 5.20703,-2.07617 5.20508,-1.88672 5.19336,-1.69336 5.17188,-1.50586 5.14258,-1.31836 5.09765,-1.12695 5.04492,-0.94141 4.98243,-0.75586 4.9082,-0.56836 4.82226,-0.38476 4.72852,-0.20118 z"
         style="fill:#ff0000;fill-rule:evenodd;stroke:none;stroke-width:0.37795275;stroke-miterlimit:4;stroke-dasharray:none"
         inkscape:connector-curvature="0" />
      <path
         sodipodi:nodetypes="ccccccccccccccccccccccc"
         class="fil3"
         d="m 48.813614,131.49194 6.631087,14.21016 h 4.427012 l 7.765047,-16.71777 h 8.026354 v -4.12224 H 64.579098 l -6.895525,14.87 -3.870447,-8.24015 z m -19.698756,-3.53836 h 18.281345 v 4.21854 H 34.186215 l 2.973466,6.35245 -3.070951,6.30277 h 13.258732 v 4.1966 H 29.114858 v -4.1966 l 2.942807,-6.31887 -2.942807,-6.33635 z"
         id="path3069"
         inkscape:connector-curvature="0"
         style="fill:#000000;fill-rule:evenodd;stroke-width:0.40511462" />
    </g>
  </g>
</svg>
