<?xml version="1.0" encoding="UTF-8" standalone="no"?>
<!-- Created with Inkscape (http://www.inkscape.org/) -->

<svg
   xmlns:dc="http://purl.org/dc/elements/1.1/"
   xmlns:cc="http://creativecommons.org/ns#"
   xmlns:rdf="http://www.w3.org/1999/02/22-rdf-syntax-ns#"
   xmlns:svg="http://www.w3.org/2000/svg"
   xmlns="http://www.w3.org/2000/svg"
   xmlns:sodipodi="http://sodipodi.sourceforge.net/DTD/sodipodi-0.dtd"
   xmlns:inkscape="http://www.inkscape.org/namespaces/inkscape"
   width="65.544029mm"
   height="54.924599mm"
   viewBox="0 0 232.24262 194.61472"
   id="svg2"
   version="1.1"
   inkscape:version="0.92.4 (unknown)"
   sodipodi:docname="logo_web_alem500.svg">
  <defs
     id="defs4" />
  <sodipodi:namedview
     id="base"
     pagecolor="#ffffff"
     bordercolor="#666666"
     borderopacity="1.0"
     inkscape:pageopacity="0.0"
     inkscape:pageshadow="2"
     inkscape:zoom="1.5378173"
     inkscape:cx="145.93656"
     inkscape:cy="59.104999"
     inkscape:document-units="px"
     inkscape:current-layer="layer1"
     showgrid="false"
     inkscape:window-width="1366"
     inkscape:window-height="693"
     inkscape:window-x="0"
     inkscape:window-y="25"
     inkscape:window-maximized="1"
     inkscape:snap-bbox="true"
     inkscape:bbox-paths="true"
     inkscape:bbox-nodes="true"
     inkscape:snap-bbox-edge-midpoints="true"
     showguides="true"
     inkscape:guide-bbox="true"
     fit-margin-top="0"
     fit-margin-left="0"
     fit-margin-right="0"
     fit-margin-bottom="0" />
  <metadata
     id="metadata7">
    <rdf:RDF>
      <cc:Work
         rdf:about="">
        <dc:format>image/svg+xml</dc:format>
        <dc:type
           rdf:resource="http://purl.org/dc/dcmitype/StillImage" />
        <dc:title></dc:title>
      </cc:Work>
    </rdf:RDF>
  </metadata>
  <g
     inkscape:label="Capa 1"
     inkscape:groupmode="layer"
     id="layer1"
     transform="translate(-126.10838,-100.19567)">
    <g
       id="g5055">
      <rect
         y="101.0815"
         x="126.99421"
         height="192.84306"
         width="230.47098"
         id="rect4236"
         style="color:#000000;display:inline;overflow:visible;visibility:visible;fill:#2656ff;fill-opacity:1;fill-rule:nonzero;stroke:#000000;stroke-width:1.77165353;stroke-linecap:round;stroke-linejoin:round;stroke-miterlimit:4;stroke-dasharray:none;stroke-opacity:1;marker:none;enable-background:accumulate" />
      <path
         id="path4206"
         d="m 126.0918,112.01172 0,38.7832 15.0625,49.25977 -15.0625,0 0,31.51758 24.55664,0 7.30273,24.31054 47.52735,0 -53.28907,-143.87109 -26.09765,0 z"
         style="font-style:normal;font-variant:normal;font-weight:bold;font-stretch:normal;font-size:medium;line-height:125%;font-family:sans-serif;-inkscape-font-specification:'sans-serif Bold';letter-spacing:0px;word-spacing:0px;fill:#ffffff;fill-opacity:1;stroke:none;stroke-width:0.35433075;stroke-linecap:butt;stroke-linejoin:miter;stroke-miterlimit:4;stroke-dasharray:none;stroke-opacity:1"
         inkscape:connector-curvature="0" />
      <g
         transform="translate(0.66483307,0)"
         id="g4253">
        <circle
           r="21.570063"
           cy="230.92691"
           cx="275.5354"
           id="circle4210"
           style="color:#000000;display:inline;overflow:visible;visibility:visible;fill:#ff0000;fill-opacity:1;fill-rule:nonzero;stroke:none;stroke-width:0.35433072;stroke-linecap:round;stroke-linejoin:round;stroke-miterlimit:4;stroke-dasharray:none;stroke-opacity:1;marker:none;enable-background:accumulate" />
        <g
           transform="matrix(1.1187447,0,0,0.89385896,-0.16628145,-1.6802164)"
           style="font-style:normal;font-variant:normal;font-weight:normal;font-stretch:normal;font-size:41.52816391px;line-height:125%;font-family:Sans;-inkscape-font-specification:'MS Sans Serif';letter-spacing:0px;word-spacing:0px;fill:#ffffff;fill-opacity:1;stroke:none;stroke-width:0.35433069;stroke-linecap:butt;stroke-linejoin:miter;stroke-miterlimit:4;stroke-dasharray:none;stroke-opacity:1"
           id="text4218">
          <path
             d="m 246.43842,245.82168 c 2.87939,0 5.13019,1.02739 6.75239,3.08216 1.93311,2.43329 2.89967,6.4685 2.89967,12.10563 0,5.6236 -0.97332,9.66557 -2.91995,12.1259 -1.60868,2.02774 -3.85272,3.04161 -6.73211,3.04161 -2.89291,0 -5.22482,-1.1085 -6.99571,-3.3255 -1.77089,-2.23051 -2.65634,-6.19813 -2.65634,-11.90285 0,-5.59657 0.97332,-9.62501 2.91995,-12.08534 1.60867,-2.02774 3.85271,-3.04161 6.7321,-3.04161 z m 0,7.01122 c -0.47388,0 -0.89665,0.17426 -1.26831,0.52277 -0.37167,0.33796 -0.65972,0.95051 -0.86413,1.83765 -0.26946,1.15117 -0.40419,3.08914 -0.40419,5.81393 0,2.72478 0.12079,4.59939 0.36238,5.62383 0.24158,1.01387 0.54356,1.68978 0.90594,2.02774 0.37166,0.33796 0.79443,0.50694 1.26831,0.50694 0.47388,0 0.89665,-0.16898 1.26832,-0.50694 0.37167,-0.34851 0.65971,-0.96634 0.86413,-1.85349 0.26946,-1.1406 0.40418,-3.0733 0.40418,-5.79808 0,-2.72479 -0.12079,-4.59411 -0.36237,-5.60799 -0.24158,-1.02443 -0.54821,-1.70563 -0.91988,-2.04359 -0.36238,-0.34851 -0.7805,-0.52277 -1.25438,-0.52277 z"
             style="font-style:normal;font-variant:normal;font-weight:bold;font-stretch:normal;font-family:Arial;-inkscape-font-specification:'Arial Bold';fill:#ffffff;stroke:none;stroke-width:0.35433069;stroke-miterlimit:4;stroke-dasharray:none"
             id="path4226"
             inkscape:connector-curvature="0"
             sodipodi:nodetypes="scscscscssccsccsccsccs" />
        </g>
      </g>
      <g
         id="g4248">
        <circle
           style="color:#000000;display:inline;overflow:visible;visibility:visible;fill:#ff0000;fill-opacity:1;fill-rule:nonzero;stroke:none;stroke-width:0.35433072;stroke-linecap:round;stroke-linejoin:round;stroke-miterlimit:4;stroke-dasharray:none;stroke-opacity:1;marker:none;enable-background:accumulate"
           id="path4208"
           cx="227.51985"
           cy="230.92691"
           r="21.570063" />
        <g
           transform="matrix(1.0847945,0,0,0.92183362,-0.62119138,0)"
           style="font-style:normal;font-variant:normal;font-weight:normal;font-stretch:normal;font-size:40.26792145px;line-height:125%;font-family:Sans;-inkscape-font-specification:'MS Sans Serif';letter-spacing:0px;word-spacing:0px;fill:#ffffff;fill-opacity:1;stroke:none;stroke-width:0.35433072;stroke-linecap:butt;stroke-linejoin:miter;stroke-miterlimit:4;stroke-dasharray:none;stroke-opacity:1"
           id="text4214">
          <path
             d="m 200.6147,257.55786 6.66235,-1.55351 c 0.49363,1.83729 1.16257,3.32832 2.5917,3.29399 1.44619,-0.0347 2.04705,-1.18111 2.03714,-3.59387 -0.0127,-3.09623 -0.97914,-3.71094 -1.87305,-3.72723 -0.91962,-0.0168 -1.38386,0.30934 -1.88845,1.19618 l -7.18256,0.10754 2.18858,-16.74186 15.57306,0 0,6.75955 -10.03524,0 0.0347,4.13946 c 1.10361,-1.06991 1.84777,-1.22667 3.13236,-1.22667 2.45121,0 3.88607,0.36188 5.59012,2.14457 1.70405,1.78269 2.55607,4.09626 2.55607,6.94071 0,2.37255 -0.68817,4.4895 -2.06452,6.35085 -1.87445,2.54296 -4.4764,3.81444 -7.80584,3.81444 -2.66093,0 -4.83032,-0.71439 -6.50815,-2.14316 -1.67783,-1.42878 -2.6806,-3.34911 -3.0083,-5.76099 z"
             style="font-style:normal;font-variant:normal;font-weight:bold;font-stretch:normal;font-family:Arial;-inkscape-font-specification:'Arial Bold';fill:#ffffff;stroke:none;stroke-width:0.35433072;stroke-miterlimit:4;stroke-dasharray:none"
             id="path4223"
             inkscape:connector-curvature="0"
             sodipodi:nodetypes="ccssscccccccssscsscc" />
        </g>
      </g>
      <g
         id="g4243">
        <circle
           style="color:#000000;display:inline;overflow:visible;visibility:visible;fill:#ff0000;fill-opacity:1;fill-rule:nonzero;stroke:none;stroke-width:0.35433072;stroke-linecap:round;stroke-linejoin:round;stroke-miterlimit:4;stroke-dasharray:none;stroke-opacity:1;marker:none;enable-background:accumulate"
           id="circle4212"
           cx="324.88062"
           cy="230.92691"
           r="21.570063" />
        <g
           id="g4228"
           style="font-style:normal;font-variant:normal;font-weight:normal;font-stretch:normal;font-size:41.52816391px;line-height:125%;font-family:Sans;-inkscape-font-specification:'MS Sans Serif';letter-spacing:0px;word-spacing:0px;fill:#ffffff;fill-opacity:1;stroke:none;stroke-width:0.35433069;stroke-linecap:butt;stroke-linejoin:miter;stroke-miterlimit:4;stroke-dasharray:none;stroke-opacity:1"
           transform="matrix(1.1187447,0,0,0.89385896,49.178933,-1.6802164)">
          <path
             sodipodi:nodetypes="scscscscssccsccsccsccs"
             inkscape:connector-curvature="0"
             id="path4230"
             style="font-style:normal;font-variant:normal;font-weight:bold;font-stretch:normal;font-family:Arial;-inkscape-font-specification:'Arial Bold';fill:#ffffff;stroke:none;stroke-width:0.35433069;stroke-miterlimit:4;stroke-dasharray:none"
             d="m 246.43842,245.82168 c 2.87939,0 5.13019,1.02739 6.75239,3.08216 1.93311,2.43329 2.89967,6.4685 2.89967,12.10563 0,5.6236 -0.97332,9.66557 -2.91995,12.1259 -1.60868,2.02774 -3.85272,3.04161 -6.73211,3.04161 -2.89291,0 -5.22482,-1.1085 -6.99571,-3.3255 -1.77089,-2.23051 -2.65634,-6.19813 -2.65634,-11.90285 0,-5.59657 0.97332,-9.62501 2.91995,-12.08534 1.60867,-2.02774 3.85271,-3.04161 6.7321,-3.04161 z m 0,7.01122 c -0.47388,0 -0.89665,0.17426 -1.26831,0.52277 -0.37167,0.33796 -0.65972,0.95051 -0.86413,1.83765 -0.26946,1.15117 -0.40419,3.08914 -0.40419,5.81393 0,2.72478 0.12079,4.59939 0.36238,5.62383 0.24158,1.01387 0.54356,1.68978 0.90594,2.02774 0.37166,0.33796 0.79443,0.50694 1.26831,0.50694 0.47388,0 0.89665,-0.16898 1.26832,-0.50694 0.37167,-0.34851 0.65971,-0.96634 0.86413,-1.85349 0.26946,-1.1406 0.40418,-3.0733 0.40418,-5.79808 0,-2.72479 -0.12079,-4.59411 -0.36237,-5.60799 -0.24158,-1.02443 -0.54821,-1.70563 -0.91988,-2.04359 -0.36238,-0.34851 -0.7805,-0.52277 -1.25438,-0.52277 z" />
        </g>
      </g>
      <g
         aria-label="ALEM 500 S.A."
         transform="scale(1.0735665,0.93147467)"
         style="font-style:normal;font-variant:normal;font-weight:normal;font-stretch:normal;line-height:0%;font-family:sans-serif;-inkscape-font-specification:'MS Sans Serif';letter-spacing:0px;word-spacing:0px;fill:#ffffff;fill-opacity:1;stroke:none;stroke-width:0.35433072;stroke-linecap:butt;stroke-linejoin:miter;stroke-miterlimit:4;stroke-dasharray:none;stroke-opacity:1"
         id="text4232">
        <path
           d="m 154.97616,305.63156 h -4.03598 l -1.60436,-4.17385 h -7.34498 l -1.51662,4.17385 h -3.93571 l 7.15697,-18.37498 h 3.92317 z m -6.83108,-7.26977 -2.53189,-6.81855 -2.48175,6.81855 z"
           style="font-style:normal;font-variant:normal;font-weight:bold;font-stretch:normal;font-size:25.66981697px;line-height:1.25;font-family:Arial;-inkscape-font-specification:'Arial Bold';fill:#ffffff;stroke:none;stroke-width:0.35433072;stroke-miterlimit:4;stroke-dasharray:none"
           id="path829" />
        <path
           d="m 157.05682,305.63156 v -18.22457 h 3.71009 v 15.12865 h 9.22509 v 3.09592 z"
           style="font-style:normal;font-variant:normal;font-weight:bold;font-stretch:normal;font-size:25.66981697px;line-height:1.25;font-family:Arial;-inkscape-font-specification:'Arial Bold';fill:#ffffff;stroke:none;stroke-width:0.35433072;stroke-miterlimit:4;stroke-dasharray:none"
           id="path831" />
        <path
           d="m 172.64923,305.63156 v -18.37498 h 13.62455 v 3.10846 h -9.91446 v 4.07358 h 9.22509 v 3.09592 h -9.22509 v 5.0011 h 10.26542 v 3.09592 z"
           style="font-style:normal;font-variant:normal;font-weight:bold;font-stretch:normal;font-size:25.66981697px;line-height:1.25;font-family:Arial;-inkscape-font-specification:'Arial Bold';fill:#ffffff;stroke:none;stroke-width:0.35433072;stroke-miterlimit:4;stroke-dasharray:none"
           id="path833" />
        <path
           d="m 189.74573,305.63156 v -18.37498 h 5.5526 l 3.33407,12.5341 3.29646,-12.5341 h 5.56514 v 18.37498 h -3.44688 v -14.46434 l -3.64742,14.46434 h -3.57221 l -3.63489,-14.46434 v 14.46434 z"
           style="font-style:normal;font-variant:normal;font-weight:bold;font-stretch:normal;font-size:25.66981697px;line-height:1.25;font-family:Arial;-inkscape-font-specification:'Arial Bold';fill:#ffffff;stroke:none;stroke-width:0.35433072;stroke-miterlimit:4;stroke-dasharray:none"
           id="path835" />
        <path
           d="m 217.59647,300.90621 3.50955,-0.36349 q 0.15041,1.19074 0.88992,1.89265 0.73951,0.68937 1.70464,0.68937 1.103,0 1.86758,-0.88992 0.76457,-0.90245 0.76457,-2.70736 0,-1.6921 -0.76457,-2.53189 -0.75205,-0.85232 -1.96786,-0.85232 -1.51662,0 -2.71989,1.34115 l -2.85778,-0.41362 1.80491,-9.56351 h 9.31283 v 3.29646 h -6.64307 l -0.5515,3.12099 q 1.17821,-0.5891 2.40655,-0.5891 2.34387,0 3.97331,1.70463 1.62943,1.70464 1.62943,4.42454 0,2.26867 -1.31608,4.04851 -1.79238,2.43161 -4.97604,2.43161 -2.54442,0 -4.14878,-1.36621 -1.60436,-1.36622 -1.91772,-3.67249 z"
           style="font-style:normal;font-variant:normal;font-weight:bold;font-stretch:normal;font-size:25.66981697px;line-height:1.25;font-family:Arial;-inkscape-font-specification:'Arial Bold';fill:#ffffff;stroke:none;stroke-width:0.35433072;stroke-miterlimit:4;stroke-dasharray:none"
           id="path837" />
        <path
           d="m 237.78889,287.18138 q 2.66977,0 4.17386,1.90518 1.79237,2.25614 1.79237,7.48285 0,5.21419 -1.80491,7.49539 -1.49155,1.88011 -4.16132,1.88011 -2.68229,0 -4.32426,-2.05559 -1.64196,-2.06812 -1.64196,-7.35751 0,-5.18911 1.80491,-7.47032 1.49155,-1.88011 4.16131,-1.88011 z m 0,2.92044 q -0.63923,0 -1.1406,0.41363 -0.50136,0.40109 -0.77711,1.45395 -0.36349,1.36622 -0.36349,4.60001 0,3.2338 0.32589,4.44961 0.32588,1.20327 0.81471,1.60436 0.50137,0.40109 1.1406,0.40109 0.63924,0 1.14061,-0.40109 0.50136,-0.41363 0.77711,-1.46649 0.36349,-1.35368 0.36349,-4.58748 0,-3.23379 -0.32589,-4.43706 -0.32588,-1.21581 -0.82725,-1.6169 -0.48883,-0.41363 -1.12807,-0.41363 z"
           style="font-style:normal;font-variant:normal;font-weight:bold;font-stretch:normal;font-size:25.66981697px;line-height:1.25;font-family:Arial;-inkscape-font-specification:'Arial Bold';fill:#ffffff;stroke:none;stroke-width:0.35433072;stroke-miterlimit:4;stroke-dasharray:none"
           id="path839" />
        <path
           d="m 252.07776,287.18138 q 2.66976,0 4.17385,1.90518 1.79238,2.25614 1.79238,7.48285 0,5.21419 -1.80491,7.49539 -1.49156,1.88011 -4.16132,1.88011 -2.6823,0 -4.32426,-2.05559 -1.64197,-2.06812 -1.64197,-7.35751 0,-5.18911 1.80491,-7.47032 1.49156,-1.88011 4.16132,-1.88011 z m 0,2.92044 q -0.63924,0 -1.1406,0.41363 -0.50137,0.40109 -0.77712,1.45395 -0.36349,1.36622 -0.36349,4.60001 0,3.2338 0.32589,4.44961 0.32589,1.20327 0.81472,1.60436 0.50136,0.40109 1.1406,0.40109 0.63924,0 1.1406,-0.40109 0.50136,-0.41363 0.77711,-1.46649 0.36349,-1.35368 0.36349,-4.58748 0,-3.23379 -0.32588,-4.43706 -0.32589,-1.21581 -0.82725,-1.6169 -0.48883,-0.41363 -1.12807,-0.41363 z"
           style="font-style:normal;font-variant:normal;font-weight:bold;font-stretch:normal;font-size:25.66981697px;line-height:1.25;font-family:Arial;-inkscape-font-specification:'Arial Bold';fill:#ffffff;stroke:none;stroke-width:0.35433072;stroke-miterlimit:4;stroke-dasharray:none"
           id="path841" />
        <path
           d="m 267.36934,299.6528 3.60982,-0.35095 q 0.32589,1.81744 1.31608,2.66976 1.00273,0.85232 2.69483,0.85232 1.79237,0 2.69483,-0.75205 0.91499,-0.76458 0.91499,-1.77984 0,-0.65177 -0.38856,-1.103 -0.37602,-0.46376 -1.32861,-0.80218 -0.65178,-0.22562 -2.97058,-0.80218 -2.98312,-0.73952 -4.18639,-1.81745 -1.6921,-1.51662 -1.6921,-3.69755 0,-1.40382 0.78965,-2.61963 0.80218,-1.22834 2.29373,-1.86758 1.50409,-0.63924 3.62236,-0.63924 3.4594,0 5.20164,1.51663 1.75478,1.51662 1.84251,4.04851 l -3.71009,0.16294 q -0.23814,-1.41635 -1.02779,-2.03052 -0.77711,-0.62671 -2.34388,-0.62671 -1.61689,0 -2.53188,0.66431 -0.5891,0.42616 -0.5891,1.1406 0,0.65178 0.5515,1.11554 0.7019,0.5891 3.40927,1.22834 2.70736,0.63924 3.99837,1.32861 1.30355,0.67684 2.03053,1.86758 0.73951,1.17821 0.73951,2.92044 0,1.5793 -0.87739,2.95805 -0.87739,1.37875 -2.48175,2.05559 -1.60436,0.66431 -3.99837,0.66431 -3.48448,0 -5.35206,-1.60437 -1.86758,-1.61689 -2.23107,-4.70028 z"
           style="font-style:normal;font-variant:normal;font-weight:bold;font-stretch:normal;font-size:25.66981697px;line-height:1.25;font-family:Arial;-inkscape-font-specification:'Arial Bold';fill:#ffffff;stroke:none;stroke-width:0.35433072;stroke-miterlimit:4;stroke-dasharray:none"
           id="path843" />
        <path
           d="m 285.43097,305.63156 v -3.52208 h 3.52208 v 3.52208 z"
           style="font-style:normal;font-variant:normal;font-weight:bold;font-stretch:normal;font-size:25.66981697px;line-height:1.25;font-family:Arial;-inkscape-font-specification:'Arial Bold';fill:#ffffff;stroke:none;stroke-width:0.35433072;stroke-miterlimit:4;stroke-dasharray:none"
           id="path845" />
        <path
           d="m 309.14547,305.63156 h -4.03598 l -1.60436,-4.17385 h -7.34498 l -1.51662,4.17385 h -3.93571 l 7.15697,-18.37498 h 3.92317 z m -6.83108,-7.26977 -2.53188,-6.81855 -2.48175,6.81855 z"
           style="font-style:normal;font-variant:normal;font-weight:bold;font-stretch:normal;font-size:25.66981697px;line-height:1.25;font-family:Arial;-inkscape-font-specification:'Arial Bold';fill:#ffffff;stroke:none;stroke-width:0.35433072;stroke-miterlimit:4;stroke-dasharray:none"
           id="path847" />
        <path
           d="m 311.10078,305.63156 v -3.52208 h 3.52208 v 3.52208 z"
           style="font-style:normal;font-variant:normal;font-weight:bold;font-stretch:normal;font-size:25.66981697px;line-height:1.25;font-family:Arial;-inkscape-font-specification:'Arial Bold';fill:#ffffff;stroke:none;stroke-width:0.35433072;stroke-miterlimit:4;stroke-dasharray:none"
           id="path849" />
      </g>
    </g>
  </g>
</svg>
