<?xml version="1.0" encoding="UTF-8" standalone="no"?>
<!-- Creator: CorelDRAW -->

<svg
   xmlns:dc="http://purl.org/dc/elements/1.1/"
   xmlns:cc="http://creativecommons.org/ns#"
   xmlns:rdf="http://www.w3.org/1999/02/22-rdf-syntax-ns#"
   xmlns:svg="http://www.w3.org/2000/svg"
   xmlns="http://www.w3.org/2000/svg"
   xmlns:sodipodi="http://sodipodi.sourceforge.net/DTD/sodipodi-0.dtd"
   xmlns:inkscape="http://www.inkscape.org/namespaces/inkscape"
   xml:space="preserve"
   width="869.04224"
   height="709.42798"
   style="fill-rule:evenodd"
   viewBox="0 0 245.26304 200.21634"
   id="svg3273"
   version="1.1"
   inkscape:version="0.48.1 r9760"
   sodipodi:docname="logo_ev2.svg"
   inkscape:export-filename="/u1/tmp/logos/150dpi/ev_ori.png"
   inkscape:export-xdpi="150"
   inkscape:export-ydpi="150"><metadata
   id="metadata3293"><rdf:RDF><cc:Work
       rdf:about=""><dc:format>image/svg+xml</dc:format><dc:type
         rdf:resource="http://purl.org/dc/dcmitype/StillImage" /><dc:title /></cc:Work></rdf:RDF></metadata><sodipodi:namedview
   pagecolor="#ffffff"
   bordercolor="#666666"
   borderopacity="1"
   objecttolerance="10"
   gridtolerance="10"
   guidetolerance="10"
   inkscape:pageopacity="0"
   inkscape:pageshadow="2"
   inkscape:window-width="1366"
   inkscape:window-height="693"
   id="namedview3291"
   showgrid="false"
   inkscape:zoom="0.71888904"
   inkscape:cx="434.52112"
   inkscape:cy="354.714"
   inkscape:window-x="0"
   inkscape:window-y="25"
   inkscape:window-maximized="1"
   inkscape:current-layer="svg3273"
   fit-margin-top="0"
   fit-margin-left="0"
   fit-margin-right="0"
   fit-margin-bottom="0"
   inkscape:document-units="mm" />
 <defs
   id="defs3275">
  <style
   type="text/css"
   id="style3277">
   
    .str0 {stroke:#1F1A17;stroke-width:0.0762}
    .fil1 {fill:none}
    .fil2 {fill:#7E8387}
    .fil3 {fill:#BABBBF}
    .fil0 {fill:#DA2724}
   
  </style>
 
  
  
  
  
  
  
 </defs>
 <g
   id="g3474"
   transform="translate(-27.060031,-3.7796007)"><path
     id="path3281"
     d="m 107.4619,33.2502 c 72.2418,-44.3263 141.012,-35.16 159.327,4.307 18.3155,39.467 -9.4141,96.2868 -74.5293,136.497 -73.608,45.5184 -141.077,35.1384 -159.393,-4.3287 -18.3156,-39.467 6.7383,-94.5857 74.5945,-136.476 z"
     style="fill:#da2724"
     inkscape:connector-curvature="0" /><path
     id="path3472"
     d="m 113.198,35.5226 c 61.7487,-36.4621 133.42,-34.2855 152.034,1.5879 18.6142,35.8734 -8.5335,94.535 -77.7134,134.182 -69.1799,39.6469 -135.012,33.7548 -153.626,-2.1186 -18.6142,-35.8734 8.0027,-91.8811 79.3058,-133.651 z"
     style="fill:#ffffff"
     inkscape:connector-curvature="0" /><path
     class="fil2"
     d="m 150.535,84.5628 1.7221,3.7156 22.0842,0 -1.7353,-3.7156 -22.071,0 z m 6.8879,14.861 1.7222,3.7156 22.1368,0 -1.7354,-3.7156 -22.1236,0 z m 6.8432,14.7645 1.7222,3.7156 22.1891,0 -1.7353,-3.7156 -22.176,0 z m 6.8879,14.8609 1.7222,3.7156 33.4162,0 1.7239,-3.7156 -36.8623,0 z m 6.9327,14.9574 1.7221,3.7156 19.5437,0 1.7239,-3.7156 -22.9897,0 z m 35.1008,-26.1027 1.7239,-3.7156 -22.0224,0 -1.7131,3.7156 22.0116,0 z m 6.8504,-14.7645 1.7239,-3.7156 -22.0656,0 -1.7131,3.7156 22.0548,0 z m 6.8951,-14.861 1.724,-3.7156 -22.1091,0 -1.7131,3.7156 22.0982,0 z m -6.7991,-33.183 -1.7131,3.7156 52.7309,0 0,-3.7156 -51.0178,0 z m -6.7343,14.6064 -1.7131,3.7156 59.4652,0 0,-3.7156 -57.7521,0 z m -70.207,0 0,3.7156 -79.6205,0 0,-3.7156 79.6205,0 z m 0,14.861 0,3.7156 -79.6205,0 0,-3.7156 79.6205,0 z m -52.5447,14.861 1.758,3.7156 -22.0346,0 -1.7144,-3.7156 21.991,0 z m 6.9854,14.7645 0.9763,2.0636 -0.7774,1.652 -22.2427,0 0.7993,-1.7229 -0.9195,-1.9927 22.164,0 z m -5.0462,14.8609 -1.7485,3.7156 -22.1431,0 1.7237,-3.7156 22.1679,0 z m 50.3932,14.9574 0,3.7156 -79.4082,0 0,-3.7156 79.4082,0 z m 0,14.7644 0,3.7156 -79.4082,0 0,-3.7156 79.4082,0 z"
     id="path3287"
     inkscape:connector-curvature="0"
     style="fill:#7e8387" /><path
     class="fil3"
     d="m 154.279,92.6411 0.853,1.8404 22.1061,0 -0.8595,-1.8404 -22.0996,0 z m 6.9774,15.054 0.853,1.8404 22.1594,0 -0.8595,-1.8404 -22.1529,0 z m 6.8432,14.7645 0.853,1.8404 41.267,0 0.8539,-1.8404 -42.9739,0 z m 6.9774,15.054 0.853,1.8404 27.3049,0 0.8539,-1.8404 -29.0118,0 z m 41.993,-27.9781 0.8539,-1.8404 -22.0414,0 -0.8485,1.8404 22.036,0 z m 6.9847,-15.054 0.8539,-1.8404 -22.0854,0 -0.8485,1.8404 22.08,0 z m 6.7161,-14.475 0.8539,-1.8404 -22.1278,0 -0.8485,1.8404 22.1224,0 z m -14.4267,-16.6916 -0.8485,1.8404 55.6559,0 0,-1.8404 -54.8074,0 z m -73.1517,14.8512 0,1.8404 -79.6205,0 0,-1.8404 79.6205,0 z m -55.7537,14.475 0.8708,1.8404 -21.9333,0 -0.8491,-1.8404 21.9116,0 z m 7.1223,15.054 0.8708,1.8404 -22.1095,0 -0.8492,-1.8404 22.0879,0 z m 1.127,14.7645 -0.8661,1.8404 -22.1997,0 0.8537,-1.8404 22.2121,0 z m -7.0844,15.054 -0.8661,1.8404 -22.0989,0 0.8538,-1.8404 22.1112,0 z m 54.3765,14.668 0,1.8404 -79.4082,0 0,-1.8404 79.4082,0 z"
     id="path3289"
     inkscape:connector-curvature="0"
     style="fill:#babbbf" /></g>
</svg>