<?xml version="1.0" encoding="iso-8859-1"?>
<!-- Generator: Adobe Illustrator 19.0.0, SVG Export Plug-In . SVG Version: 6.00 Build 0)  -->
<svg xmlns="http://www.w3.org/2000/svg" xmlns:xlink="http://www.w3.org/1999/xlink" version="1.1" id="Layer_1" x="0px" y="0px" viewBox="0 0 512 512" style="enable-background:new 0 0 512 512;" xml:space="preserve" width="512px" height="512px">
<g>
	<g>
		<path d="M504.485,368.72h-40.579V223.937c0-4.151-3.364-7.515-7.515-7.515H383.75V95.186h64.626c4.151,0,7.515-3.364,7.515-7.515    V7.515c0-4.151-3.364-7.515-7.515-7.515H256c-4.151,0-7.515,3.364-7.515,7.515v80.157c0,4.151,3.364,7.515,7.515,7.515h64.626    v17.534c0,4.151,3.364,7.515,7.515,7.515c4.151,0,7.515-3.364,7.515-7.515V95.186h33.065v121.237h-33.065v-72.141    c0-4.151-3.364-7.515-7.515-7.515c-4.151,0-7.515,3.364-7.515,7.515v72.141H215.421v-21.435l8.517-8.518l10.717,10.718    c2.936,2.934,7.693,2.934,10.628,0l10.717-10.718l10.717,10.718c4.641,4.638,12.829,1.225,12.829-5.314v-32.063    c0-21.823-17.755-39.577-39.577-39.577H143.78c-21.823,0-39.577,17.755-39.577,39.577v56.612H55.609    c-4.151,0-7.515,3.364-7.515,7.515V368.72H7.515c-4.151,0-7.515,3.364-7.515,7.515v104.204c0,4.151,3.364,7.515,7.515,7.515H56.11    v16.532c0,4.151,3.364,7.515,7.515,7.515h32.063c4.151,0,7.515-3.364,7.515-7.515v-16.532h305.597v16.532    c0,4.151,3.364,7.515,7.515,7.515h32.063c4.151,0,7.515-3.364,7.515-7.515v-16.532h48.595c4.151,0,7.515-3.364,7.515-7.515    V376.235C512,372.084,508.636,368.72,504.485,368.72z M215.421,159.812c0-13.536,11.012-24.548,24.548-24.548    s24.548,11.012,24.548,24.548v13.921l-3.202-3.203c-2.936-2.934-7.693-2.934-10.628,0l-10.718,10.718l-10.717-10.718    c-2.936-2.934-7.693-2.934-10.628,0l-3.203,3.202V159.812z M263.515,80.157V15.029h177.346v65.127H263.515z M215.421,263.515    h9.018v17.033h-9.018V263.515z M143.781,135.264h65.163c-5.352,6.751-8.553,15.283-8.553,24.548v32.058c0,0.003,0,0.007,0,0.01    v88.668h-81.159V159.812h0C119.233,146.276,130.244,135.264,143.781,135.264z M63.123,231.452h41.08v17.033H87.671    c-4.151,0-7.515,3.364-7.515,7.515v32.063c0,4.151,3.364,7.515,7.515,7.515h144.282c4.151,0,7.515-3.364,7.515-7.515V256    c0-4.151-3.364-7.515-7.515-7.515h-16.532v-17.033h233.456V368.72H63.123V231.452z M104.204,263.515v17.033h-9.018v-17.033    H104.204z M88.172,496.971H71.139v-9.018h17.033V496.971z M440.861,496.971h-17.033v-9.018h17.033V496.971z M496.971,472.924    H15.029V383.75h481.941V472.924z" fill="#FFFFFF"/>
	</g>
</g>
<g>
	<g>
		<path d="M424.329,24.047H280.047c-4.151,0-7.515,3.364-7.515,7.515v32.063c0,4.151,3.364,7.515,7.515,7.515h144.282    c4.151,0,7.515-3.364,7.515-7.515V31.562C431.843,27.411,428.48,24.047,424.329,24.047z M416.814,56.11H287.562V39.076h129.252    V56.11z" fill="#FFFFFF"/>
	</g>
</g>
<g>
	<g>
		<path d="M304.094,248.485h-16.031c-8.564,0-15.53,6.967-15.53,15.53v16.031c0,8.564,6.967,15.53,15.53,15.53h16.031    c8.564,0,15.53-6.967,15.53-15.53v-16.031C319.624,255.452,312.658,248.485,304.094,248.485z M304.595,280.047    c0,0.276-0.225,0.501-0.501,0.501h-16.031c-0.276,0-0.501-0.225-0.501-0.501v-16.031c0-0.276,0.225-0.501,0.501-0.501h16.031    c0.276,0,0.501,0.225,0.501,0.501V280.047z" fill="#FFFFFF"/>
	</g>
</g>
<g>
	<g>
		<path d="M360.203,248.485h-16.031c-8.564,0-15.53,6.967-15.53,15.53v16.031c0,8.564,6.967,15.53,15.53,15.53h16.031    c8.564,0,15.53-6.967,15.53-15.53v-16.031C375.734,255.452,368.767,248.485,360.203,248.485z M360.705,280.047    c0,0.276-0.225,0.501-0.501,0.501h-16.031c-0.276,0-0.501-0.225-0.501-0.501v-16.031c0-0.276,0.225-0.501,0.501-0.501h16.031    c0.276,0,0.501,0.225,0.501,0.501V280.047z" fill="#FFFFFF"/>
	</g>
</g>
<g>
	<g>
		<path d="M416.313,248.485h-16.031c-8.564,0-15.53,6.967-15.53,15.53v16.031c0,8.564,6.967,15.53,15.53,15.53h16.031    c8.564,0,15.53-6.967,15.53-15.53v-16.031C431.843,255.452,424.877,248.485,416.313,248.485z M416.814,280.047    c0,0.276-0.225,0.501-0.501,0.501h-16.031c-0.276,0-0.501-0.225-0.501-0.501v-16.031c0-0.276,0.225-0.501,0.501-0.501h16.031    c0.276,0,0.501,0.225,0.501,0.501V280.047z" fill="#FFFFFF"/>
	</g>
</g>
<g>
	<g>
		<path d="M304.094,304.595h-16.031c-8.564,0-15.53,6.967-15.53,15.53v16.031c0,8.564,6.967,15.53,15.53,15.53h16.031    c8.564,0,15.53-6.967,15.53-15.53v-16.031C319.624,311.562,312.658,304.595,304.094,304.595z M304.595,336.157    c0,0.276-0.225,0.501-0.501,0.501h-16.031c-0.276,0-0.501-0.225-0.501-0.501v-16.031c0-0.276,0.225-0.501,0.501-0.501h16.031    c0.276,0,0.501,0.225,0.501,0.501V336.157z" fill="#FFFFFF"/>
	</g>
</g>
<g>
	<g>
		<path d="M223.937,304.595h-16.031c-8.564,0-15.53,6.967-15.53,15.53v16.031c0,8.564,6.967,15.53,15.53,15.53h16.031    c8.564,0,15.53-6.967,15.53-15.53v-16.031C239.468,311.562,232.501,304.595,223.937,304.595z M224.438,336.157    c0,0.276-0.225,0.501-0.501,0.501h-16.031c-0.276,0-0.501-0.225-0.501-0.501v-16.031c0-0.276,0.225-0.501,0.501-0.501h16.031    c0.276,0,0.501,0.225,0.501,0.501V336.157z" fill="#FFFFFF"/>
	</g>
</g>
<g>
	<g>
		<path d="M167.828,304.595h-16.031c-8.564,0-15.53,6.967-15.53,15.53v16.031c0,8.564,6.967,15.53,15.53,15.53h16.031    c8.564,0,15.53-6.967,15.53-15.53v-16.031C183.358,311.562,176.392,304.595,167.828,304.595z M168.329,336.157    c0,0.276-0.225,0.501-0.501,0.501h-16.031c-0.276,0-0.501-0.225-0.501-0.501v-16.031c0-0.276,0.225-0.501,0.501-0.501h16.031    c0.276,0,0.501,0.225,0.501,0.501V336.157z" fill="#FFFFFF"/>
	</g>
</g>
<g>
	<g>
		<path d="M111.718,304.595H95.687c-8.564,0-15.53,6.967-15.53,15.53v16.031c0,8.564,6.967,15.53,15.53,15.53h16.031    c8.564,0,15.53-6.967,15.53-15.53v-16.031C127.249,311.562,120.282,304.595,111.718,304.595z M112.219,336.157    c0,0.276-0.225,0.501-0.501,0.501H95.687c-0.276,0-0.501-0.225-0.501-0.501v-16.031c0-0.276,0.225-0.501,0.501-0.501h16.031    c0.276,0,0.501,0.225,0.501,0.501V336.157z" fill="#FFFFFF"/>
	</g>
</g>
<g>
	<g>
		<path d="M360.203,304.595h-16.031c-8.564,0-15.53,6.967-15.53,15.53v16.031c0,8.564,6.967,15.53,15.53,15.53h16.031    c8.564,0,15.53-6.967,15.53-15.53v-16.031C375.734,311.562,368.767,304.595,360.203,304.595z M360.705,336.157    c0,0.276-0.225,0.501-0.501,0.501h-16.031c-0.276,0-0.501-0.225-0.501-0.501v-16.031c0-0.276,0.225-0.501,0.501-0.501h16.031    c0.276,0,0.501,0.225,0.501,0.501V336.157z" fill="#FFFFFF"/>
	</g>
</g>
<g>
	<g>
		<path d="M416.313,304.595h-16.031c-8.564,0-15.53,6.967-15.53,15.53v16.031c0,8.564,6.967,15.53,15.53,15.53h16.031    c8.564,0,15.53-6.967,15.53-15.53v-16.031C431.843,311.562,424.877,304.595,416.313,304.595z M416.814,336.157    c0,0.276-0.225,0.501-0.501,0.501h-16.031c-0.276,0-0.501-0.225-0.501-0.501v-16.031c0-0.276,0.225-0.501,0.501-0.501h16.031    c0.276,0,0.501,0.225,0.501,0.501V336.157z" fill="#FFFFFF"/>
	</g>
</g>
<g>
	<g>
		<path d="M183.859,200.391h-48.094c-4.151,0-7.515,3.364-7.515,7.515s3.364,7.515,7.515,7.515h48.094    c4.151,0,7.515-3.364,7.515-7.515S188.01,200.391,183.859,200.391z" fill="#FFFFFF"/>
	</g>
</g>
<g>
	<g>
		<path d="M183.859,168.329h-48.094c-4.151,0-7.515,3.364-7.515,7.515s3.364,7.515,7.515,7.515h48.094    c4.151,0,7.515-3.364,7.515-7.515S188.01,168.329,183.859,168.329z" fill="#FFFFFF"/>
	</g>
</g>
<g>
	<g>
		<path d="M183.859,232.454h-48.094c-4.151,0-7.515,3.364-7.515,7.515s3.364,7.515,7.515,7.515h48.094    c4.151,0,7.515-3.364,7.515-7.515S188.01,232.454,183.859,232.454z" fill="#FFFFFF"/>
	</g>
</g>
<g>
	<g>
		<path d="M480.438,392.767H384.25c-4.151,0-7.515,3.364-7.515,7.515s3.364,7.515,7.515,7.515h88.673v41.08H39.076v-41.08h313.112    c4.151,0,7.515-3.364,7.515-7.515s-3.364-7.515-7.515-7.515H31.562c-4.151,0-7.515,3.364-7.515,7.515v56.11    c0,4.151,3.364,7.515,7.515,7.515h448.877c4.151,0,7.515-3.364,7.515-7.515v-56.11    C487.953,396.131,484.589,392.767,480.438,392.767z" fill="#FFFFFF"/>
	</g>
</g>
<g>
	<g>
		<path d="M304.094,416.814h-96.188c-4.151,0-7.515,3.364-7.515,7.515c0,4.151,3.364,7.515,7.515,7.515h96.188    c4.151,0,7.515-3.364,7.515-7.515C311.609,420.178,308.245,416.814,304.094,416.814z" fill="#FFFFFF"/>
	</g>
</g>
<g>
</g>
<g>
</g>
<g>
</g>
<g>
</g>
<g>
</g>
<g>
</g>
<g>
</g>
<g>
</g>
<g>
</g>
<g>
</g>
<g>
</g>
<g>
</g>
<g>
</g>
<g>
</g>
<g>
</g>
</svg>
