<?xml version="1.0" encoding="UTF-8" standalone="no"?>
<!-- Creator: CorelDRAW -->

<svg
   xmlns:dc="http://purl.org/dc/elements/1.1/"
   xmlns:cc="http://creativecommons.org/ns#"
   xmlns:rdf="http://www.w3.org/1999/02/22-rdf-syntax-ns#"
   xmlns:svg="http://www.w3.org/2000/svg"
   xmlns="http://www.w3.org/2000/svg"
   xmlns:sodipodi="http://sodipodi.sourceforge.net/DTD/sodipodi-0.dtd"
   xmlns:inkscape="http://www.inkscape.org/namespaces/inkscape"
   xml:space="preserve"
   width="156.56131mm"
   height="50.078499mm"
   style="clip-rule:evenodd;fill-rule:evenodd;image-rendering:optimizeQuality;shape-rendering:geometricPrecision;text-rendering:geometricPrecision"
   viewBox="0 0 156.56131 50.078499"
   id="svg3422"
   version="1.1"
   inkscape:version="0.91 r13725"
   sodipodi:docname="logo_vineria_san_juan_srl.svg"><metadata
     id="metadata3452"><rdf:RDF><cc:Work
         rdf:about=""><dc:format>image/svg+xml</dc:format><dc:type
           rdf:resource="http://purl.org/dc/dcmitype/StillImage" /><dc:title></dc:title></cc:Work></rdf:RDF></metadata><sodipodi:namedview
     pagecolor="#ffffff"
     bordercolor="#666666"
     borderopacity="1"
     objecttolerance="10"
     gridtolerance="10"
     guidetolerance="10"
     inkscape:pageopacity="0"
     inkscape:pageshadow="2"
     inkscape:window-width="1366"
     inkscape:window-height="695"
     id="namedview3450"
     showgrid="false"
     inkscape:zoom="1.2295165"
     inkscape:cx="288.03824"
     inkscape:cy="91.426326"
     inkscape:window-x="0"
     inkscape:window-y="25"
     inkscape:window-maximized="1"
     inkscape:current-layer="svg3422"
     inkscape:snap-bbox="true"
     inkscape:bbox-nodes="true"
     inkscape:snap-bbox-edge-midpoints="true"
     showguides="true"
     inkscape:guide-bbox="true"
     inkscape:snap-global="false"
     fit-margin-top="0"
     fit-margin-left="0"
     fit-margin-right="0"
     fit-margin-bottom="0" /><defs
     id="defs3424"><style
       type="text/css"
       id="style3426"><![CDATA[
    .fil0 {fill:#1F1A17}
    .fil1 {fill:#1F1A17;fill-rule:nonzero}
   ]]></style><style
       id="style3440"
       type="text/css"><![CDATA[
    .fil0 {fill:#1F1A17}
    .fil1 {fill:#1F1A17;fill-rule:nonzero}
   ]]></style></defs><path
     id="_54993592"
     style="fill:#974478;fill-opacity:1;fill-rule:nonzero"
     d="m 27.979525,22.423394 6.113562,13.322286 c 0.153639,0.319487 0.299819,0.593263 0.461719,0.938449 0.117469,0.250554 0.346969,0.764669 0.400767,1.001087 l 6.803974,0 C 40.78463,35.797894 39.53145,32.940753 38.544141,30.921551 L 32.056005,17.365323 c -0.183761,-0.37666 -0.547957,-1.014502 -0.631574,-1.382082 l -0.172175,0 c -0.07254,0.318251 -0.207135,0.519069 -0.361174,0.776848 l -1.247739,2.427337 c -0.202903,0.371396 -1.663818,3.061673 -1.663818,3.235968 z m -0.483681,2.928655 4.100861,8.452028 -8.181875,0 4.081014,-8.452028 z m -4.511703,9.157671 8.957014,0 1.119489,2.470369 c 0.110921,0.229711 0.241487,0.705643 0.516826,0.705643 0.804355,0 -0.106589,-1.362784 -0.402681,-1.969154 l -2.352215,-5.001313 c -0.655856,-1.511591 -1.834784,-3.762362 -2.351308,-5.002036 -1.012295,-2.429091 -0.97925,-1.761837 -2.099645,0.533412 -0.38082,0.780046 -0.709856,1.454524 -1.090776,2.234776 l -4.314946,8.821258 c -0.284708,0.586453 0.08624,0.884685 0.389182,0.580261 l 1.62906,-3.373216 z M 1.7973844,8.044296 c 0,3.804361 1.165932,5.848229 2.358662,8.33129 1.517334,3.159501 4.590385,7.280671 6.5072766,10.247094 2.030936,3.143609 3.967071,5.020302 3.243715,9.321854 -0.09148,0.54435 -0.176607,0.918018 -0.559945,1.259281 2.153643,0 4.832477,-1.325739 6.36452,-2.894911 1.945302,-1.992579 2.663721,-4.012401 2.663721,-7.019383 0,-2.56417 -0.975019,-4.992438 -1.968071,-6.565325 C 20.125275,20.277055 19.84903,19.861697 19.583868,19.401347 17.837237,16.368982 13.439678,11.367462 11.541324,8.14429 10.738177,6.781094 10.500316,5.749152 10.500316,4.128485 c 0,-1.411803 1.265167,-2.16605 2.440166,-2.16605 0.841329,0 1.692229,0.261081 2.388282,0.469637 1.141349,0.341678 2.880326,1.291994 3.692136,2.133234 0.257708,0.266962 0.485092,0.477997 0.732725,0.74919 0.1487,0.162737 0.51733,0.81348 0.669657,0.81348 0.415476,0 0.80768,-0.344565 0.292667,-1.049071 C 20.313367,4.528569 19.91774,4.007231 19.40061,3.593214 18.697304,3.030496 18.628193,2.891081 17.684103,2.352201 13.869762,0.175522 8.2328294,0.35054 4.3987434,2.377801 2.6005304,3.328738 1.7973844,5.260329 1.7973844,8.044304 Z m -1.70824796,2.082461 c 0,2.373162 0.96403796,5.141039 1.97935496,7.220715 l 1.54383,2.917199 c 1.820075,3.100784 2.490841,4.049448 4.367031,6.773985 l 1.370749,1.928806 c 1.0049396,1.36361 4.2009006,5.393554 2.0438306,6.651907 -2.1628116,1.26124 -5.8534356,0.05211 -7.6444956,-1.248653 -0.643363,-0.467365 -1.303148,-1.020592 -1.802243,-1.652964 -0.83599,-1.05929 -1.00322796,-2.095774 -1.45124496,-2.095774 -1.406815,0 0.59329296,2.626603 0.91386596,2.979426 1.204619,1.326046 2.694449,2.464486 4.423147,3.050941 2.015623,0.683454 3.873377,1.000365 5.8082016,-0.02972 0.867321,-0.461899 1.380621,-1.270014 1.380621,-2.335183 0,-2.497718 -3.7692046,-7.105241 -5.3685456,-9.580358 -1.162608,-1.799709 -1.967668,-2.92752 -3.146294,-4.942078 -1.150014,-1.965853 -2.29479,-4.083502 -2.920321,-6.339951 C 1.2620204,12.253489 1.1612744,11.61482 1.0533754,10.472461 0.93006244,9.171902 0.08913644,9.816968 0.08913644,10.126758 Z M 122.73697,22.108651 c 0,0.367888 7.31254,15.535183 7.41822,15.739819 l 7.06521,0 c -0.028,-0.343741 -1.09763,-2.33921 -1.32451,-2.804307 l -7.80025,-15.982222 c -0.4322,-0.886231 -1.553,-2.744659 -1.73786,-3.556799 l -0.17671,0 c -0.11042,0.424646 -3.4441,6.339849 -3.4441,6.603509 z m -7.24121,16.011221 c 0.28481,0 0.42887,-0.518036 0.55813,-0.785001 l 0.9724,-1.898673 c 0.13177,-0.270679 0.30455,-0.844129 0.58896,-0.844129 l 9.09614,0 c 0.48147,0 1.27263,2.857347 1.85443,3.256401 0.76134,-0.181725 0.30879,-0.724837 -0.11767,-1.598069 l -5.59301,-11.548683 c -0.72073,-1.487029 -0.76224,-0.845264 -2.03103,1.779278 l -5.44955,10.792681 c -0.14195,0.272742 -0.43845,0.846195 0.1212,0.846195 z m 6.79994,-13.11662 c 0.10568,0.464064 0.78018,1.688466 1.03033,2.201238 0.3782,0.774576 0.72356,1.482285 1.08926,2.231269 l 2.1196,4.432401 -8.74313,0 4.50394,-8.864908 z m 33.64711,1.446784 c -3.17521,-1.720971 -7.39082,-4.542615 -10.65549,-6.363168 -2.05934,-1.148244 -4.37902,-2.721441 -6.47725,-3.858644 l 0,8.593509 15.49219,10.002935 c 0.43402,0.27233 1.92183,1.302932 2.25903,1.395188 l 0,-20.353328 c -0.83196,-0.198546 -0.61848,0.300296 -0.61848,1.99 l 0,8.593508 z m -16.86687,0.453024 0,10.131309 c 0,0.2778 0.0818,0.542804 0.35321,0.542804 0.56831,0 0.35311,-1.662461 0.35311,-2.261402 l 0,-7.960306 c 0.38435,0.09153 3.54142,2.204641 4.09744,2.587391 l 2.05653,1.331205 c 0.72184,0.436824 1.34999,0.900783 2.05501,1.332137 l 4.04948,2.636718 c 0.36792,0.237038 0.65505,0.435996 1.026,0.667873 0.43341,0.270679 2.88949,1.937783 3.14186,1.937783 0.31574,0 0.47653,-0.442392 -0.11203,-0.789539 -1.99084,-1.17363 -4.89706,-3.257638 -6.98099,-4.51857 l -6.38295,-4.13634 c -0.60538,-0.40741 -3.09784,-2.043969 -3.30346,-2.043969 -0.27141,0 -0.35321,0.265004 -0.35321,0.542906 z M 59.415564,26.658489 c -1.402281,-0.961873 -6.676932,-4.127258 -8.058763,-4.978403 -1.38032,-0.850322 -2.655965,-1.631606 -4.036283,-2.482134 l -4.096833,-2.508346 0,8.380928 c 0.306168,0.08379 3.872975,2.525889 4.202816,2.752607 0.361781,0.248801 0.702906,0.449616 1.050982,0.687995 0.337196,0.231053 0.693939,0.491516 1.03748,0.701721 0.377698,0.230846 0.676006,0.439092 1.046751,0.692127 l 9.456713,6.281127 2.03e-4,-18.790757 c 0.0031,-0.629384 0.08715,-0.7495 -0.172579,-1.146697 -0.484084,0.115683 -0.439956,0.285541 -0.434616,0.878287 l 0.0041,9.531545 z m -15.933465,0.352924 0,10.057012 c 0,0.206595 0.143061,0.353131 0.344452,0.353131 0.431492,0 0.258513,-1.453803 0.258513,-2.293908 l 0,-7.674975 c 0.298712,0.08173 0.741891,0.44776 1.016426,0.635057 0.352106,0.240752 0.636512,0.407927 0.999902,0.651775 0.360468,0.241786 0.630871,0.432489 0.980863,0.671384 l 2.979962,1.976171 c 0.686582,0.470874 1.293173,0.853519 1.980765,1.323261 l 5.942294,3.970607 c 1.006048,0.68965 1.946811,1.522942 1.946811,0.652086 0,-0.309996 -1.755293,-1.316141 -1.997891,-1.48187 -0.369536,-0.252414 -0.670664,-0.431456 -1.051887,-0.687172 l -3.134507,-2.082359 c -0.365808,-0.240132 -0.670464,-0.457562 -1.032846,-0.706468 l -7.320901,-4.851682 c -0.818763,-0.562511 -1.911956,-1.567005 -1.911956,-0.51205 z m 54.969075,-10.782774 0,19.087028 c 0,0.373874 0.87044,0.961463 1.1752,1.148244 2.488916,1.522425 6.327946,1.777627 9.056646,0.738561 1.0667,-0.406171 1.73353,-0.841033 2.59924,-1.498896 1.45971,-1.109134 2.71218,-3.069723 2.71218,-5.634618 l 0,-13.840319 c 0,-0.278418 -0.1224,-0.271298 -0.35321,-0.271298 -0.42122,0 -0.26507,0.731131 -0.26486,1.537801 2e-4,2.058727 0.0947,11.961772 -0.0492,12.975861 -0.25297,1.78516 -0.53365,2.623098 -1.60619,3.872885 -0.64699,0.753731 -2.44359,1.816837 -3.38889,2.137359 -0.89835,0.304837 -2.09501,0.643625 -3.08071,0.643625 l 0,-20.896233 c 0,-0.208452 -0.0617,-0.271298 -0.26506,-0.271298 l -6.270316,0 c -0.20331,0 -0.26486,0.06285 -0.26486,0.271298 z m -1.76608,0.180588 0,16.644731 c 0,0.385843 0.61828,0.385843 0.61828,0 l 0,-16.644731 c 0,-0.385738 -0.61828,-0.385738 -0.61828,0 z M 79.62585,0 c -0.176305,0 -0.325826,0.06528 -0.449242,0.196232 -0.123509,0.130954 -0.185205,0.327445 -0.185205,0.589249 l 0,4.736595 1.21653,0 0,-4.736595 c 0,-0.261804 -0.06189,-0.458295 -0.185208,-0.589249 C 79.89921,0.065283 79.766893,0 79.62585,0 Z m 2.592366,0.458061 0,5.064015 11.691828,0 0,-5.064015 -11.691828,0 z m -3.226813,15.45332 0,32.334289 c -0.458496,0.0874 -0.926169,0.16335 -1.402295,0.22875 -0.476123,0.0654 -0.960901,0.0987 -1.454655,0.0987 l -0.529167,0 -0.528616,0 c -2.398355,-0.21826 -4.637955,-1.20051 -6.718763,-2.94624 -2.080906,-1.745643 -3.368059,-4.451327 -3.861813,-8.117202 0,-0.218152 -0.04424,-0.370859 -0.132292,-0.458058 -0.08815,-0.08731 -0.202813,-0.131191 -0.343958,-0.131191 l -0.105833,0 c -0.03526,0 -0.07057,0.02204 -0.105834,0.06559 -0.141144,0.04366 -0.264535,0.130875 -0.370416,0.261829 -0.105786,0.13085 -0.15875,0.3055 -0.15875,0.523655 0.599539,4.015086 2.01921,6.982991 4.258688,8.903237 2.23958,1.92024 4.664464,3.0327 7.274388,3.33816 0.211565,0 0.440439,0.0113 0.687366,0.0331 0.246928,0.0219 0.476349,0.0325 0.687917,0.0325 0.599539,0 1.207902,-0.0439 1.825072,-0.13119 0.617169,-0.0873 1.207781,-0.21796 1.772158,-0.39246 0.140944,0 0.246879,-0.0654 0.3175,-0.19624 0.07052,-0.13095 0.105833,-0.3055 0.105833,-0.52365 l 0,-32.923543 -1.21653,0 z m 3.226813,0 0,33.839659 c 0.352608,-0.13095 0.67041,-0.24012 0.9525,-0.32742 0.282188,-0.0873 0.546269,-0.15264 0.7932,-0.19624 0.211666,-0.0436 0.405776,-0.0983 0.582083,-0.16371 0.176406,-0.0654 0.352758,-0.16339 0.529167,-0.29435 0.458492,-0.21815 0.960918,-0.57855 1.507568,-1.08038 0.54665,-0.50194 1.34902,-1.29844 2.40716,-2.389518 1.4459,-1.527378 2.62733,-3.371173 3.54431,-5.531443 0.917,-2.160168 1.37584,-4.898649 1.37584,-8.215314 l 0,-15.641284 -11.691828,0 z" /><g
     transform="matrix(1.1416632,0,0.11293056,0.87591503,-14.225716,-54.5411)"
     style="font-style:normal;font-variant:normal;font-weight:normal;font-stretch:normal;font-size:20.63002777px;line-height:125%;font-family:Sans;-inkscape-font-specification:'MS Sans Serif';letter-spacing:0px;word-spacing:0px;fill:#000000;fill-opacity:1;stroke:none;stroke-width:1px;stroke-linecap:butt;stroke-linejoin:miter;stroke-opacity:1"
     id="text4161" /><g
     transform="matrix(0.96590704,0,0.09554519,0.74107014,43.897553,-37.917832)"
     style="color:#000000;font-style:normal;font-variant:normal;font-weight:normal;font-stretch:normal;font-size:20.63002777px;line-height:125%;font-family:Sans;-inkscape-font-specification:'MS Sans Serif';letter-spacing:0px;word-spacing:0px;clip-rule:nonzero;display:inline;overflow:visible;visibility:visible;opacity:1;isolation:auto;mix-blend-mode:normal;color-interpolation:sRGB;color-interpolation-filters:linearRGB;solid-color:#000000;solid-opacity:1;fill:#974478;fill-opacity:1;fill-rule:nonzero;stroke:none;stroke-width:0.33357531;stroke-linecap:butt;stroke-linejoin:miter;stroke-miterlimit:4;stroke-dasharray:none;stroke-dashoffset:0;stroke-opacity:1;color-rendering:auto;image-rendering:auto;shape-rendering:auto;text-rendering:auto;enable-background:accumulate"
     id="text4165"><path
       id="path4186"
       style="color:#000000;font-style:normal;font-variant:normal;font-weight:normal;font-stretch:normal;font-family:'ALS Script';-inkscape-font-specification:'ALS Script';clip-rule:nonzero;display:inline;overflow:visible;visibility:visible;isolation:auto;mix-blend-mode:normal;color-interpolation:sRGB;color-interpolation-filters:linearRGB;solid-color:#000000;solid-opacity:1;fill:#974478;fill-opacity:1;fill-rule:nonzero;stroke-width:0.33357531;stroke-linecap:butt;stroke-linejoin:miter;stroke-miterlimit:4;stroke-dasharray:none;stroke-dashoffset:0;stroke-opacity:1;color-rendering:auto;image-rendering:auto;shape-rendering:auto;text-rendering:auto;enable-background:accumulate"
       d="m 32.951934,60.492435 q -0.02015,-0.543955 0.201465,-0.846153 0.241758,-0.302198 0.624542,-0.302198 0.100733,0 0.201465,0.04029 0.120879,0.02015 0.201465,0.100733 0.100733,0.06044 0.161172,0.181318 0.06044,0.120879 0.06044,0.302198 0,0.261905 -0.100733,0.543956 -0.100732,0.261905 -0.302197,0.503663 -0.181319,0.241758 -0.443224,0.483516 -0.241758,0.241758 -0.523809,0.443223 -0.282051,0.201465 -0.584249,0.362637 -0.302197,0.181319 -0.564102,0.302198 -0.261905,0.141026 -0.503663,0.201465 -0.261904,0.06044 -0.443223,0.08059 -0.04029,0 -0.100733,-0.04029 -0.08059,-0.04029 -0.08059,-0.100732 0,-0.08059 0.06044,-0.141026 0.04029,-0.06044 0.100732,-0.06044 0.624542,-0.161173 1.007326,-0.382784 0.40293,-0.201465 0.624542,-0.46337 0.221611,-0.261905 0.302197,-0.564102 0.100733,-0.302198 0.100733,-0.644689 z m -45.722932,-7.629188 q 0.547685,-0.02382 0.952495,0.119061 0.428623,0.119063 0.714371,0.333374 0.309561,0.214311 0.523871,0.523872 0.238124,0.285748 0.428623,0.642934 0.1904998,0.333373 0.3333739,0.690559 0.1666858,0.333373 0.3333729,0.642933 0.1666859,0.309561 0.3571847,0.595309 0.1905,0.261937 0.4762482,0.428623 0.1190611,-0.190499 0.2619352,-0.452434 0.1666871,-0.261937 0.3809977,-0.571498 0.2143117,-0.333373 0.4524352,-0.666746 0.2619365,-0.333373 0.5238718,-0.642934 0.2857494,-0.333373 0.5953093,-0.619121 0.3333729,-0.309561 0.666747,-0.523872 0.333373,-0.214312 0.6905576,-0.333374 0.3571859,-0.119061 0.7381835,-0.119061 0.1904988,0 0.3571859,0.09525 0.1904988,0.09525 0.3333729,0.238124 0.1428741,0.142874 0.2381235,0.333372 0.095254,0.166688 0.095254,0.357186 0,0.261937 -0.071438,0.547685 -0.071438,0.261935 -0.2381235,0.547683 -0.1428741,0.261937 -0.3571859,0.523873 -0.2143117,0.261936 -0.5000599,0.500059 -0.2619353,0.238125 -0.5953094,0.452435 -0.3333729,0.190499 -0.7143706,0.357186 -0.3571858,0.166686 -0.7619952,0.285748 -0.4048106,0.119063 -0.8334329,0.166688 -0.1190623,0.642932 -0.3095611,1.381116 -0.1666859,0.714372 -0.4048106,1.476367 -0.2381235,0.761995 -0.5476835,1.571616 -0.2857482,0.80962 -0.6429341,1.643053 -0.3333729,0.80962 -0.7381826,1.619241 -0.404811,0.80962 -0.857245,1.619241 -0.452435,0.785807 -0.952495,1.547803 -0.476247,0.761996 -1.023932,1.452554 0.761995,-0.523871 1.571616,-1.262055 0.833433,-0.738183 1.6668657,-1.619241 0.8572446,-0.904869 1.7383022,-1.928801 0.9048694,-1.023932 1.8097399,-2.095488 0.9286823,-1.095369 1.8573646,-2.21455 0.9286823,-1.142993 1.8573646,-2.238362 0.952494,-1.119182 1.88117632,-2.166926 0.92868229,-1.047744 1.83355168,-2.000238 0.1904999,-0.1905 0.3809988,-0.357185 0.2143105,-0.190499 0.4286223,-0.333373 0.2381235,-0.142874 0.476247,-0.238124 0.2619365,-0.09525 0.5238717,-0.09525 0.1428741,0 0.2857482,0.09525 0.1666871,0.07144 0.2857494,0.214311 0.1190612,0.142874 0.1904988,0.309561 0.095254,0.166686 0.095254,0.30956 0,0.166687 -0.071438,0.333374 -0.071438,0.142874 -0.1904988,0.285748 Q 3.6357303,54.744428 3.4928562,54.839678 3.3499809,54.911115 3.183295,54.95874 3.0166079,55.006361 2.8499221,54.911119 2.683235,54.792057 2.5165492,54.672995 2.3498621,54.553933 2.1831751,54.482497 q -0.1428741,-0.07144 -0.2857483,0.02382 -0.7143705,0.452435 -1.47636573,1.190619 -0.73818348,0.71437 -1.54780457,1.666865 -0.80962,0.928683 -1.6906776,2.047864 -0.8572446,1.095368 -1.8097398,2.285987 -0.9524941,1.190617 -2.0002387,2.428861 -1.0477435,1.21443 -2.1907375,2.405049 -1.1429929,1.190617 -2.4288609,2.309798 -1.262055,1.09537 -2.666985,2.024052 -0.04762,0.04762 -0.142874,0.02382 -0.09525,0 -0.1905,-0.04762 -0.07144,-0.04762 -0.119061,-0.119061 -0.02382,-0.04762 0,-0.09525 0.523872,-0.71437 0.952494,-1.500179 0.452435,-0.785808 0.809621,-1.595428 0.380998,-0.833433 0.690559,-1.666865 0.333373,-0.857245 0.619121,-1.714491 0.309561,-0.881057 0.59531,-1.738302 0.285748,-0.857245 0.571496,-1.71449 0.2857482,-0.881058 0.5953094,-1.714491 0.3095599,-0.833433 0.6667458,-1.666864 -0.6429341,-0.04762 -1.1191811,-0.238125 -0.4762471,-0.214311 -0.8334331,-0.523872 -0.357186,-0.30956 -0.619121,-0.666746 -0.238123,-0.357186 -0.452435,-0.71437 -0.190499,-0.380999 -0.380998,-0.714372 -0.166687,-0.357185 -0.380997,-0.595309 -0.190499,-0.261936 -0.428623,-0.380998 -0.238124,-0.142874 -0.595309,-0.07144 -0.523873,0.07144 -1.095369,0.238124 -0.547685,0.166686 -1.095369,0.428622 -0.523873,0.238124 -1.023931,0.571497 -0.50006,0.333373 -0.952496,0.738183 -0.428622,0.380998 -0.809619,0.857246 -0.357186,0.476247 -0.619122,1.000119 -0.261936,0.523871 -0.40481,1.119181 -0.142874,0.595309 -0.142874,1.262055 0,0.333373 0.119061,0.714372 0.142874,0.357184 0.380999,0.666745 0.261935,0.285749 0.595308,0.476247 0.357186,0.166688 0.785808,0.142875 0.666746,-0.04762 1.381118,-0.333373 0.71437,-0.285749 1.381117,-0.90487 0.690558,-0.642934 1.30968,-1.643054 0.619121,-1.023931 1.095368,-2.52411 0.02382,-0.04762 0.07144,-0.02382 0.07144,0 0.119061,0.04762 0.07144,0.04762 0.119062,0.119061 0.04762,0.04762 0.04762,0.09525 0.02382,0.309561 -0.04762,0.738183 -0.04762,0.428623 -0.166687,0.928683 -0.119061,0.476247 -0.333373,1.023931 -0.190498,0.523872 -0.476247,1.023932 -0.285748,0.50006 -0.666745,0.952494 -0.380999,0.428624 -0.881058,0.761996 -0.476248,0.333373 -1.095369,0.523872 -0.59531,0.190499 -1.333493,0.190499 -0.523872,0 -1.023932,-0.214311 -0.500059,-0.214311 -0.904869,-0.595309 -0.380998,-0.40481 -0.619121,-0.952495 -0.238124,-0.571497 -0.214312,-1.262055 0,-0.714371 0.190499,-1.381118 0.190498,-0.666746 0.50006,-1.262055 0.333373,-0.595308 0.785808,-1.119181 0.452435,-0.523872 0.976307,-0.952494 0.547684,-0.452435 1.142993,-0.809621 0.595309,-0.357185 1.238243,-0.595308 0.642934,-0.261937 1.285868,-0.404811 0.642933,-0.166687 1.285867,-0.190499 z m 5.500656,4.048102 q 0.333373,-0.02382 0.6429341,-0.119062 0.3333729,-0.09525 0.6429341,-0.214311 0.3095611,-0.142874 0.5953094,-0.309561 0.3095599,-0.190499 0.5476834,-0.380997 0.2619365,-0.214312 0.4762483,-0.428623 0.2143105,-0.238123 0.3571846,-0.476248 0.1666871,-0.238123 0.2381247,-0.476247 0.095254,-0.238123 0.1190612,-0.50006 0,-0.119061 -0.047621,-0.238123 -0.047621,-0.142875 -0.1428741,-0.261936 -0.095254,-0.119062 -0.2143117,-0.190499 -0.1190612,-0.07144 -0.2381235,-0.07144 -0.2619353,0 -0.5000588,0.09525 -0.2381247,0.07144 -0.4762482,0.238123 -0.2143106,0.166688 -0.4286223,0.404811 -0.2143118,0.214312 -0.4048106,0.50006 -0.1904988,0.261935 -0.3809976,0.571496 -0.1666859,0.285749 -0.3333729,0.59531 -0.1428742,0.30956 -0.2619365,0.642934 -0.1190612,0.30956 -0.1904988,0.619121 z m 8.682126,1.705713 c -0.1475439,0 -0.2866263,0.03964 -0.41751873,0.11901 -0.1145528,0.0635 -0.22065952,0.150698 -0.31865209,0.261821 -0.0816131,0.111126 -0.15505177,0.230029 -0.22021607,0.357029 -0.0487699,0.126999 -0.073291,0.238723 -0.0729832,0.333973 2.4213e-4,0.07937 0.008768,0.166571 0.0254613,0.261821 0.0330423,0.07938 0.074247,0.158646 0.12368997,0.238019 0.0657804,0.0635 0.13993478,0.118987 0.22206064,0.166613 0.0984651,0.03176 0.21326726,0.05554 0.34446868,0.07141 0.1311524,0 0.2538198,-0.03172 0.3683711,-0.09521 0.1145017,-0.07938 0.2205963,-0.166572 0.3186521,-0.261822 0.098005,-0.111126 0.1714433,-0.230029 0.2202131,-0.357028 0.065113,-0.142876 0.089427,-0.27838 0.072628,-0.405379 -4.104e-4,-0.127 -0.024954,-0.230052 -0.074394,-0.309425 -0.0331,-0.09525 -0.082575,-0.166591 -0.1483,-0.214217 -0.065783,-0.0635 -0.1401816,-0.103141 -0.2222027,-0.11901 -0.065679,-0.03176 -0.1393085,-0.0476 -0.2212777,-0.0476 z m 21.704602,4.762615 c -0.147493,0.01588 -0.302861,0.05552 -0.466597,0.11901 -0.163733,0.0635 -0.335557,0.150698 -0.515534,0.261821 -0.179974,0.111126 -0.368257,0.245883 -0.564471,0.404632 -0.196214,0.15875 -0.392191,0.333886 -0.588303,0.524385 -1.372255,1.307948 -2.475476,2.699606 -3.750307,3.881201 -0.179819,0.15875 -0.367332,0.31729 -0.563546,0.476039 -0.179871,0.142872 -0.368155,0.277633 -0.564472,0.404632 -0.196316,0.127 -0.384875,0.23872 -0.5649,0.33397 -0.180025,0.09525 -0.359751,0.166594 -0.53993,0.214217 -0.180182,0.04763 -0.352164,0.07141 -0.516102,0.07141 -0.114758,0 -0.237828,-0.01584 -0.369082,-0.0476 -0.114912,-0.04762 -0.22197,-0.118968 -0.320641,-0.214217 -0.09868,-0.09525 -0.180611,-0.20697 -0.246594,-0.33397 -0.04965,-0.142872 -0.0748,-0.317266 -0.07546,-0.523642 -0.01691,-0.158749 -0.0097,-0.317289 0.02254,-0.476038 0.03227,-0.158749 0.0647,-0.333143 0.09688,-0.523642 0.262151,-0.04763 0.532561,-0.111786 0.811001,-0.191158 0.294835,-0.07938 0.581262,-0.166572 0.859651,-0.261821 0.294731,-0.111127 0.573381,-0.222105 0.835324,-0.333227 0.278286,-0.127 0.539876,-0.26176 0.785322,-0.404633 0.26184,-0.142872 0.491096,-0.293487 0.68731,-0.452236 0.212557,-0.174626 0.392241,-0.349751 0.539224,-0.524389 0.163323,-0.190495 0.285594,-0.380731 0.366952,-0.571246 0.0977,-0.206372 0.145891,-0.420391 0.145176,-0.642651 -4.76e-4,-0.142873 -0.03361,-0.286301 -0.09964,-0.429178 -0.04964,-0.142872 -0.131528,-0.261779 -0.246597,-0.357028 -0.115114,-0.111131 -0.263225,-0.198326 -0.443763,-0.261821 -0.180539,-0.06349 -0.385381,-0.09521 -0.614897,-0.09521 -0.311536,-0.01588 -0.623249,0.01584 -0.934474,0.09521 -0.311229,0.07938 -0.613745,0.190354 -0.908373,0.333226 -0.29463,0.142877 -0.58929,0.309342 -0.883762,0.499841 -0.278084,0.190499 -0.540159,0.389418 -0.785399,0.59579 -0.245245,0.206388 -0.481915,0.420407 -0.710713,0.642652 -0.212453,0.206387 -0.4088,0.405295 -0.588517,0.595794 -1.200485,1.302624 -2.208851,2.555801 -3.4562602,3.452763 -0.3108188,0.20638 -0.6132539,0.349066 -0.9080877,0.428435 -0.04918,0 -0.098509,-0.0079 -0.1477315,-0.0238 -0.049279,-0.03176 -0.090531,-0.07138 -0.1234797,-0.11901 -0.032934,-0.04762 -0.065918,-0.09518 -0.098864,-0.142811 -0.016626,-0.0635 -0.02506,-0.118987 -0.025179,-0.166614 -5.134e-4,-0.158745 0.040015,-0.325956 0.1214199,-0.500582 0.081405,-0.174623 0.1872787,-0.356945 0.3178009,-0.547445 0.1305367,-0.190499 0.2692248,-0.388671 0.4161019,-0.595047 l 0.4898635,-0.619593 0.4899321,-0.666454 c 0.1632201,-0.222248 0.3019029,-0.45286 0.4158901,-0.691002 0.1303827,-0.238121 0.2358377,-0.467991 0.3170927,-0.690255 0.0812,-0.238122 0.121616,-0.475917 0.120851,-0.714058 -4.77e-4,-0.142872 -0.02559,-0.278375 -0.07518,-0.405375 -0.03325,-0.142872 -0.09115,-0.269704 -0.173478,-0.38083 -0.08233,-0.111131 -0.1809955,-0.198326 -0.2959592,-0.261821 -0.1150148,-0.07937 -0.2458578,-0.11901 -0.3934047,-0.11901 -0.147544,0 -0.3116311,0.03964 -0.4917071,0.11901 -0.1637332,0.0635 -0.3438275,0.158623 -0.5401443,0.285622 C 8.1831949,63.94305 7.987214,64.085736 7.7746569,64.260358 7.5784428,64.419107 7.3737501,64.594244 7.1612442,64.784743 L 6.5488335,65.379781 C 6.3363801,65.586172 6.13184,65.792258 5.93578,65.99863 5.7397181,66.205022 5.551966,66.411855 5.3723004,66.618227 5.1925833,66.808726 5.0209916,66.991045 4.8576175,67.165671 4.9553654,66.975172 5.0614724,66.776995 5.1755632,66.570623 5.3060459,66.364247 5.4119027,66.149489 5.4931551,65.927225 5.5908029,65.70498 5.6717023,65.483035 5.7365573,65.260771 5.8013447,65.022649 5.8253684,64.79278 5.8082542,64.570516 5.8076016,64.364143 5.7743633,64.189007 5.7083269,64.046131 5.6586817,63.903258 5.5843722,63.784352 5.4857007,63.689102 5.4034229,63.59386 5.3049539,63.530444 5.190094,63.498687 c -0.098518,-0.04762 -0.2133191,-0.07141 -0.3444687,-0.07141 -0.1803357,0 -0.3771219,0.04756 -0.5899328,0.142811 -0.2128138,0.09525 -0.4335552,0.222082 -0.6625581,0.380831 -0.2126057,0.158749 -0.4418547,0.341815 -0.687098,0.548187 -0.2288989,0.190514 -0.449159,0.396604 -0.6615619,0.61885 -0.2124048,0.222264 -0.4166202,0.444208 -0.6126258,0.666453 -0.95852191,1.043629 -2.02103921,2.152078 -2.8917921,3.048135 -0.2941643,0.285748 -0.613101,0.548083 -0.9566024,0.786205 -0.3271584,0.222249 -0.7037168,0.380789 -1.1296523,0.476039 -0.081916,0.01588 -0.1475248,0.008 -0.1968096,-0.0238 -0.049279,-0.03176 -0.090531,-0.07138 -0.1234767,-0.11901 -0.032934,-0.04763 -0.065797,-0.103117 -0.098794,-0.166613 l -0.049647,-0.190415 c -0.016531,-0.04762 0.00774,-0.143494 0.072841,-0.286366 0.065062,-0.158749 0.1541857,-0.348997 0.2682254,-0.571246 0.1304312,-0.222249 0.2855756,-0.467984 0.4650393,-0.737859 0.1793946,-0.285749 0.3668033,-0.579792 0.5625554,-0.881414 0.212147,-0.301626 0.4242711,-0.618705 0.6363151,-0.952077 0.2284355,-0.333371 0.448902,-0.659111 0.660999,-0.976625 0.212041,-0.333371 0.41609545,-0.651193 0.61184798,-0.952819 0.21214659,-0.301622 0.39164913,-0.579068 0.53837214,-0.833067 l -1.67263732,0 c -0.2941161,0.301626 -0.5961606,0.602851 -0.9066708,0.904473 -0.2941132,0.301625 -0.588209,0.611522 -0.8822733,0.929017 -0.2941177,0.301641 -0.5800688,0.611523 -0.857739,0.929021 -0.2776702,0.317499 -0.5389097,0.650432 -0.7836914,0.999681 -0.016355,0.01588 1.395e-4,0.03965 0.049433,0.07141 0.032837,0.01588 0.065876,0.0238 0.098653,0.0238 0.032786,0 0.065611,-0.01584 0.098301,-0.0476 l 0.1224806,-0.11901 c 0.3595397,-0.349248 0.694402,-0.698767 1.00476,-1.048031 0.310302,-0.365121 0.6616303,-0.729747 1.0539063,-1.094888 -0.1957025,0.317514 -0.4080731,0.650436 -0.63646,0.999681 -0.2284373,0.33339 -0.4484573,0.667051 -0.6604988,1.000427 -0.2120439,0.333371 -0.3913383,0.667051 -0.5378075,1.000423 -0.1464663,0.333371 -0.2189855,0.650455 -0.2180104,0.952076 7.841e-4,0.238126 0.04209,0.452896 0.1246781,0.643395 0.082585,0.190499 0.1818563,0.349039 0.2970249,0.476038 0.1151677,0.127007 0.2544389,0.222131 0.4185832,0.285623 0.1641441,0.0635 0.3282619,0.09521 0.4922032,0.09521 0.1311495,0 0.278822,-0.03172 0.4425565,-0.09521 0.1637843,-0.04762 0.335364,-0.118964 0.5153893,-0.214217 0.1799764,-0.111123 0.3681363,-0.237955 0.5644019,-0.380831 0.1962653,-0.142872 0.3924436,-0.29423 0.5886578,-0.452979 1.04288156,-1.002221 2.18331251,-2.134891 3.0641293,-3.07119 L 2.3200101,65.6178 c 0.1797171,-0.190499 0.3594504,-0.372803 0.5392205,-0.547444 0.1797682,-0.174623 0.3509901,-0.333147 0.5144684,-0.476039 0.1798194,-0.158745 0.3437444,-0.294248 0.4909293,-0.405375 0.1635798,-0.11113 0.318548,-0.198325 0.4658864,-0.261821 0.1473409,-0.06349 0.2787204,-0.09521 0.3934785,-0.09521 0.081969,0 0.1475756,0.0079 0.1968096,0.0238 0.049231,0.01588 0.082018,0.03965 0.098511,0.07141 0.032843,0.01588 0.049331,0.03965 0.049433,0.07141 0.016522,0.03176 0.024632,0.07139 0.024751,0.119009 2.052e-4,0.0635 -0.039962,0.174478 -0.1214148,0.333227 C 4.9069679,64.593636 4.8004619,64.776705 4.6536367,64.99895 4.523201,65.221214 4.3685068,65.474863 4.1890976,65.760611 4.0096354,66.030502 3.8140967,66.32453 3.6020013,66.642029 3.3898576,66.94365 3.1695845,67.26073 2.9411486,67.594105 l -0.6854666,0.95282 c -0.2120954,0.317498 -0.4246687,0.626653 -0.6368123,0.928274 -0.1957526,0.301626 -0.382902,0.579815 -0.5624135,0.83381 l 1.6475271,0 C 2.8346194,70.150264 3.0142799,69.936233 3.242921,69.666357 3.4715646,69.396485 3.7242425,69.094513 4.0018612,68.761142 4.27948,68.42777 4.5817654,68.078236 4.9084647,67.713115 5.2350984,67.332117 5.5621256,66.959546 5.8888249,66.594425 6.2319162,66.2293 6.5666575,65.88771 6.8935096,65.570196 7.2203116,65.236824 7.5309468,64.943539 7.8252182,64.689525 8.135831,64.419653 8.4056031,64.212809 8.6346576,64.069933 8.8800524,63.91118 9.0844702,63.823981 9.248345,63.808112 c 0.065575,0 0.1232373,0.03172 0.1726273,0.09521 0.065725,0.04763 0.098588,0.103122 0.098794,0.166614 2.71e-4,0.07938 -0.040368,0.182425 -0.121915,0.309425 C 9.3326873,64.50636 9.2348197,64.657717 9.1042319,64.83234 8.9899854,64.991104 8.851546,65.173412 8.6882749,65.379784 8.5249505,65.570299 8.3617047,65.776385 8.198485,65.99863 8.035212,66.205022 7.871648,66.427705 7.7084791,66.665831 7.545259,66.88808 7.3985054,67.11796 7.2681223,67.356086 c -0.1304312,0.222249 -0.2359644,0.452876 -0.3171637,0.690998 -0.081173,0.238122 -0.1296161,0.468007 -0.1453185,0.690256 6.157e-4,0.190499 0.025398,0.388676 0.075246,0.595048 0.049799,0.190499 0.124193,0.373564 0.2231212,0.548187 0.1152711,0.158749 0.2470464,0.285581 0.3948982,0.38083 0.1642492,0.09525 0.3281198,0.142812 0.4920582,0.142812 0.1311525,0 0.2870935,-0.03964 0.4671696,-0.11901 0.1964675,-0.07937 0.3925289,-0.190351 0.5887946,-0.333227 1.1694571,-0.901251 2.3255791,-2.108042 3.3339201,-3.190942 -0.04862,0.174626 -0.08875,0.356945 -0.120922,0.547444 -0.0322,0.174623 -0.04786,0.349763 -0.04731,0.524385 0.0012,0.380998 0.05153,0.729786 0.150923,1.047284 0.115733,0.301626 0.263792,0.571886 0.444895,0.810008 0.197446,0.222249 0.427932,0.396643 0.690644,0.523642 0.262715,0.127 0.541511,0.190416 0.836602,0.190416 0.262302,0 0.524125,-0.03964 0.786173,-0.11901 0.262045,-0.07937 0.524406,-0.190351 0.786246,-0.333227 0.278235,-0.142872 0.539821,-0.310083 0.785113,-0.500583 0.261686,-0.190499 0.506828,-0.388675 0.735677,-0.595048 1.252642,-1.157367 2.553806,-2.643021 3.627326,-3.785993 0.163374,-0.174623 0.327024,-0.333155 0.490501,-0.476039 0.179819,-0.158745 0.351315,-0.294248 0.514897,-0.405375 0.16358,-0.11113 0.327261,-0.198325 0.490994,-0.261821 0.163685,-0.07938 0.319177,-0.126942 0.466669,-0.142811 0.04913,-0.01588 0.0903,-0.008 0.123194,0.0238 0.04923,0.01588 0.09015,0.03965 0.123049,0.0714 0.03289,0.03176 0.05785,0.07139 0.0744,0.11901 0.01652,0.03176 0.02463,0.07139 0.02475,0.119009 2.05e-4,0.0635 -0.04052,0.174478 -0.121985,0.333227 -0.08146,0.15875 -0.195662,0.349744 -0.342487,0.571989 -0.130435,0.222257 -0.28513,0.475913 -0.464539,0.761661 -0.179462,0.269884 -0.37545,0.555994 -0.587594,0.857616 -0.212146,0.301621 -0.432417,0.618701 -0.660855,0.952076 l -0.685464,0.95282 c -0.212096,0.317498 -0.424099,0.626653 -0.636246,0.928274 -0.195749,0.301626 -0.383468,0.579815 -0.562983,0.83381 l 1.672068,0 c 0.277567,-0.349245 0.563687,-0.706707 0.857598,-1.071829 0.310245,-0.380998 0.620283,-0.74564 0.93064,-1.094888 0.326696,-0.365121 0.653865,-0.706726 0.980716,-1.024225 0.343197,-0.333375 0.685966,-0.634601 1.029365,-0.904473 -0.08136,0.190499 -0.154192,0.380747 -0.219148,0.571246 -0.04857,0.190499 -0.0808,0.388672 -0.09653,0.595048 -0.01589,0.142872 0.0011,0.277633 0.05071,0.404633 0.04954,0.111122 0.123463,0.214918 0.222125,0.310167 0.115015,0.07938 0.237916,0.142793 0.369223,0.190415 0.131306,0.04763 0.271234,0.06347 0.418729,0.0476 0.09836,0 0.196349,-0.01584 0.294611,-0.0476 0.114656,-0.03176 0.221153,-0.07138 0.319363,-0.119009 0.11455,-0.0635 0.228995,-0.12692 0.343547,-0.190415 0.114554,-0.0635 0.220924,-0.127666 0.319081,-0.191158 0.09811,-0.07938 0.188362,-0.158647 0.270074,-0.23802 0.48851,-0.479157 1.038309,-1.015214 1.470648,-1.500267 0.310305,-0.365121 0.661062,-0.729759 1.053337,-1.094888 -0.195702,0.317503 -0.407504,0.650436 -0.635888,0.999681 -0.228439,0.333379 -0.448457,0.667051 -0.660501,1.000427 -0.212044,0.333371 -0.391339,0.667051 -0.537805,1.000423 -0.146467,0.333375 -0.219558,0.650455 -0.218583,0.952076 7.55e-4,0.238122 0.04266,0.452896 0.125248,0.643395 0.08258,0.190499 0.18129,0.349035 0.296455,0.476038 0.115171,0.127003 0.255008,0.222135 0.419153,0.285623 0.164147,0.06349 0.328262,0.09521 0.492203,0.09521 0.131152,0 0.278252,-0.03172 0.441987,-0.09521 0.163784,-0.04762 0.335933,-0.11896 0.515962,-0.214217 1.243375,-0.890188 2.538484,-2.059681 3.604632,-3.262348 -0.03217,0.190499 -0.07255,0.388672 -0.121063,0.595048 -0.04856,0.190499 -0.07215,0.389418 -0.0715,0.59579 0.01731,0.285749 0.0506,0.571121 0.10071,0.856869 0.05011,0.285749 0.133127,0.548084 0.248652,0.786206 0.115476,0.222249 0.263819,0.404572 0.444617,0.547444 0.180743,0.127004 0.401953,0.190416 0.664258,0.190416 0.311482,0 0.6144,-0.06341 0.909081,-0.190416 0.311074,-0.126995 0.597589,-0.293464 0.859227,-0.49984 0.261629,-0.206372 0.506767,-0.436999 0.735465,-0.690998 0.245084,-0.253999 0.465961,-0.499738 0.661919,-0.73786 -0.01591,0.15875 -0.0405,0.31729 -0.07277,0.476039 -0.01589,0.142876 -0.03166,0.293487 -0.04766,0.452236 6.08e-4,0.174626 0.01762,0.341838 0.05092,0.500583 0.04965,0.142876 0.115685,0.269708 0.198016,0.380831 0.09867,0.09525 0.205157,0.166594 0.320072,0.214217 0.131297,0.04763 0.279253,0.07141 0.443195,0.07141 0.196727,0 0.401533,-0.03964 0.6144,-0.11901 0.229254,-0.07937 0.458346,-0.182425 0.687451,-0.309425 0.229055,-0.142872 0.44991,-0.310083 0.662419,-0.500583 0.228897,-0.190499 0.449481,-0.380746 0.661986,-0.571246 0.212506,-0.190499 0.408657,-0.380746 0.588372,-0.571246 0.196062,-0.206372 0.367725,-0.389437 0.514759,-0.548186 0.147025,-0.15875 0.269585,-0.29351 0.367589,-0.404633 0.09793,-0.126999 0.162725,-0.214198 0.195389,-0.261821 0.01606,-0.01588 0.0245,-0.03172 0.02469,-0.0476 1.1e-4,-0.01588 -0.0085,-0.03172 -0.02497,-0.0476 -1.02e-4,-0.03176 -0.0079,-0.05554 -0.02432,-0.0714 l -0.02497,-0.0476 c -0.04923,-0.01588 -0.09868,-0.01588 -0.147804,0 -0.04919,0 -0.09015,0.01584 -0.122838,0.0476 -0.130634,0.158749 -0.277548,0.325214 -0.440923,0.49984 -0.147033,0.158749 -0.310308,0.325957 -0.490073,0.500583 -0.163374,0.174622 -0.33484,0.34902 -0.514614,0.523642 -0.179765,0.174626 -0.359831,0.341091 -0.539648,0.49984 -0.179871,0.142876 -0.351417,0.285562 -0.514896,0.428435 -0.163528,0.126999 -0.327082,0.238723 -0.490712,0.333969 -0.147236,0.09525 -0.286235,0.166594 -0.417236,0.214217 -0.114604,0.04763 -0.221433,0.07141 -0.319793,0.07141 l -0.09815,0 c -0.03287,-0.01588 -0.06578,-0.03172 -0.09858,-0.0476 -0.03281,-0.01588 -0.06547,-0.04758 -0.09844,-0.09521 -0.01656,-0.04763 -0.02488,-0.111043 -0.02511,-0.190416 -4.19e-4,-0.142872 0.03184,-0.310083 0.09688,-0.500583 0.08135,-0.190499 0.187011,-0.3966 0.317445,-0.618849 0.130377,-0.238122 0.277004,-0.492533 0.440075,-0.762404 0.179458,-0.269872 0.367106,-0.547319 0.56291,-0.833067 0.195804,-0.285749 0.391914,-0.579792 0.587666,-0.881418 0.212144,-0.301621 0.41588,-0.602847 0.611633,-0.904473 0.212143,-0.301621 0.407684,-0.595664 0.587096,-0.881413 0.195752,-0.301622 0.375378,-0.586993 0.538441,-0.856869 l -1.622989,0 -1.125821,1.643075 c 0.113418,-0.333372 0.136663,-0.603632 0.07042,-0.810008 -0.0663,-0.222249 -0.173466,-0.396643 -0.321423,-0.523642 -0.14795,-0.126992 -0.32819,-0.206262 -0.541419,-0.238019 -0.196682,-0.04758 -0.385161,-0.07136 -0.565322,-0.07141 l -5.84e-4,0 c -0.311231,0.01592 -0.61441,0.07142 -0.909012,0.166613 -0.294834,0.07938 -0.589204,0.190355 -0.883833,0.333227 -0.278285,0.127 -0.556409,0.277614 -0.834541,0.452237 -0.26174,0.174622 -0.515425,0.357687 -0.760717,0.548186 -0.245291,0.190499 -0.474145,0.388676 -0.686599,0.595048 -1.473455,1.509773 -2.865439,3.14696 -4.192795,4.096142 -0.327159,0.222249 -0.703145,0.380801 -1.12908,0.476039 -0.08192,0.01588 -0.147525,0.008 -0.196809,-0.0238 -0.04929,-0.03172 -0.09054,-0.07138 -0.123477,-0.11901 -0.03294,-0.04763 -0.0658,-0.103121 -0.09879,-0.166613 l -0.05022,-0.190416 c -0.01656,-0.04762 0.0077,-0.143489 0.07284,-0.286365 0.06506,-0.158749 0.154753,-0.348997 0.268796,-0.571246 0.130433,-0.222245 0.285578,-0.467984 0.465039,-0.73786 0.179409,-0.285748 0.366803,-0.579791 0.562555,-0.881413 0.212147,-0.301622 0.424274,-0.618705 0.636315,-0.952077 0.228439,-0.333371 0.448903,-0.659122 0.660999,-0.976625 0.212044,-0.333371 0.415529,-0.651193 0.611279,-0.952819 0.212146,-0.301622 0.391649,-0.579068 0.538372,-0.833067 l -1.672068,0 c -0.294116,0.301625 -0.596161,0.602851 -0.906668,0.904473 -0.294116,0.301625 -0.588212,0.611522 -0.882276,0.929017 -0.683044,0.748534 -1.379868,1.53517 -2.034662,2.119098 -0.130742,0.126999 -0.269217,0.237977 -0.416453,0.333227 -0.130897,0.07938 -0.270541,0.151468 -0.417879,0.21496 -0.147342,0.0635 -0.310857,0.10314 -0.491138,0.119009 -0.08197,0 -0.164314,-0.01584 -0.246385,-0.0476 -0.06573,-0.04763 -0.131099,-0.103864 -0.196877,-0.167357 -0.06583,-0.07938 -0.115179,-0.158646 -0.148227,-0.238019 -0.0167,-0.09525 -0.0252,-0.182448 -0.02546,-0.261821 -9.24e-4,-0.285748 0.04731,-0.539412 0.144966,-0.761661 0.114039,-0.222249 0.252921,-0.429086 0.416245,-0.619596 0.163322,-0.190496 0.351082,-0.364886 0.563689,-0.523642 0.212608,-0.158746 0.441414,-0.317278 0.686812,-0.476039 0.163579,-0.111122 0.310769,-0.222093 0.441561,-0.333227 0.130793,-0.111122 0.237209,-0.214918 0.31887,-0.310167 0.09806,-0.09525 0.171573,-0.182449 0.220499,-0.261821 0.04887,-0.09524 0.07315,-0.158658 0.07305,-0.190416 -2.05e-4,-0.0635 -0.01678,-0.118986 -0.04972,-0.166613 -0.03299,-0.06349 -0.08226,-0.111054 -0.147945,-0.142811 -0.06573,-0.04762 -0.131535,-0.07934 -0.197164,-0.09521 -0.06568,-0.03176 -0.131163,-0.0476 -0.196738,-0.0476 -0.278645,0.01588 -0.524673,0.08722 -0.737381,0.214217 -0.212763,0.111127 -0.400276,0.269666 -0.563547,0.476039 -0.163322,0.190499 -0.310599,0.413201 -0.440927,0.667196 -0.113938,0.254006 -0.21944,0.523516 -0.31688,0.809265 -0.359692,0.301633 -0.71907,0.619448 -1.078659,0.952823 -0.343248,0.317499 -0.695101,0.642503 -1.054689,0.975879 0.163066,-0.269876 0.309742,-0.531465 0.440074,-0.785464 0.146723,-0.253998 0.269362,-0.500472 0.366957,-0.738605 0.113991,-0.238122 0.202836,-0.483853 0.267584,-0.73786 0.06476,-0.253995 0.10505,-0.51633 0.120572,-0.786206 -5.13e-4,-0.158749 -0.03374,-0.301435 -0.09972,-0.428434 -0.04959,-0.127003 -0.123581,-0.230052 -0.222201,-0.309425 -0.08228,-0.09525 -0.189336,-0.166591 -0.320642,-0.214217 -0.114961,-0.06349 -0.229641,-0.09521 -0.344399,-0.09521 z m -5.802446,0.333227 c 0.04918,0 0.106521,0.01584 0.1722,0.0476 0.06567,0.03176 0.115068,0.07139 0.148014,0.119009 0.04933,0.04763 0.0822,0.103122 0.0988,0.166614 0.033,0.0635 0.04988,0.134844 0.05014,0.214217 5.13e-4,0.158749 -0.03195,0.325961 -0.09688,0.500583 -0.06506,0.158761 -0.15439,0.325218 -0.268581,0.49984 -0.114195,0.174638 -0.253083,0.34902 -0.416457,0.523642 -0.163375,0.174638 -0.343511,0.341838 -0.539722,0.500587 -0.196214,0.158749 -0.408608,0.30936 -0.637663,0.452236 -0.212659,0.142873 -0.441544,0.269705 -0.687095,0.380831 -0.229154,0.111126 -0.466835,0.20625 -0.712486,0.285623 -0.229259,0.07937 -0.466448,0.142789 -0.712202,0.190415 0.04867,-0.158749 0.113681,-0.333143 0.195035,-0.523642 0.0977,-0.206376 0.203357,-0.412478 0.317448,-0.61885 0.130483,-0.206376 0.268919,-0.421137 0.415745,-0.643398 0.146828,-0.222245 0.301926,-0.428339 0.465253,-0.61885 0.179665,-0.206372 0.359523,-0.396608 0.539293,-0.571246 0.179768,-0.174622 0.359657,-0.325979 0.539579,-0.452979 0.196266,-0.142876 0.384181,-0.253854 0.564257,-0.333227 0.196471,-0.07937 0.38499,-0.119009 0.565323,-0.119009 z m 9.664315,0 c 0.03283,0.01588 0.06562,0.03965 0.09851,0.07141 0.03284,0.01588 0.04933,0.03965 0.04943,0.0714 -0.03237,0.127 -0.113759,0.269686 -0.244398,0.428435 -0.130688,0.142876 -0.277751,0.27838 -0.441279,0.405375 -0.16358,0.111134 -0.327508,0.214179 -0.491141,0.309425 -0.147232,0.09527 -0.253413,0.150748 -0.318935,0.166613 0.03254,-0.07937 0.09782,-0.198271 0.195675,-0.357028 0.0978,-0.174623 0.212204,-0.341834 0.34284,-0.500583 0.130639,-0.158749 0.269482,-0.293506 0.41667,-0.404633 0.147134,-0.126999 0.277868,-0.190415 0.392623,-0.190415 z m 11.557733,0.0238 c 0.09836,0 0.196868,0.0238 0.295391,0.07141 0.114909,0.04762 0.213254,0.118967 0.295534,0.214217 0.08228,0.09525 0.148691,0.198302 0.198231,0.309425 0.04952,0.09525 0.07424,0.183195 0.07447,0.262563 5.05e-4,0.142877 -0.03197,0.31727 -0.09688,0.523643 -0.06491,0.206376 -0.162342,0.444185 -0.292622,0.714057 -0.130332,0.254003 -0.285469,0.532188 -0.46483,0.833814 -0.163012,0.285744 -0.350338,0.579045 -0.562482,0.88067 -0.212195,0.285749 -0.440639,0.563938 -0.685677,0.83381 -0.245033,0.269876 -0.498491,0.515611 -0.760078,0.73786 -0.261583,0.222249 -0.53168,0.413239 -0.809864,0.571988 -0.261789,0.158749 -0.531602,0.261802 -0.810144,0.309425 -0.09831,0.01588 -0.188803,2.3e-5 -0.270926,-0.0476 -0.08218,-0.0635 -0.156087,-0.134844 -0.221916,-0.214217 -0.04948,-0.09525 -0.09094,-0.191116 -0.124041,-0.286366 -0.01674,-0.111126 -0.02513,-0.20625 -0.02539,-0.285623 0.01589,-0.158749 0.05626,-0.356922 0.121064,-0.595048 0.0648,-0.238121 0.146274,-0.492532 0.243763,-0.762403 0.113885,-0.269876 0.244068,-0.555248 0.39064,-0.856869 0.162964,-0.301626 0.342215,-0.595669 0.538018,-0.881418 0.195801,-0.285745 0.399615,-0.555262 0.611916,-0.809265 0.228643,-0.269872 0.465683,-0.507681 0.710927,-0.714057 0.261632,-0.206373 0.531484,-0.381509 0.809722,-0.524385 0.278234,-0.142873 0.55664,-0.237996 0.835182,-0.285623 z"
       inkscape:connector-curvature="0" /></g><path
     id="rect4218"
     style="color:#000000;clip-rule:nonzero;display:inline;overflow:visible;visibility:visible;opacity:1;isolation:auto;mix-blend-mode:normal;color-interpolation:sRGB;color-interpolation-filters:linearRGB;solid-color:#000000;solid-opacity:1;fill:#974478;fill-opacity:1;fill-rule:nonzero;stroke:none;stroke-width:0.28222224;stroke-linecap:butt;stroke-linejoin:miter;stroke-miterlimit:4;stroke-dasharray:none;stroke-dashoffset:0;stroke-opacity:1;marker:none;color-rendering:auto;image-rendering:auto;shape-rendering:auto;text-rendering:auto;enable-background:accumulate"
     d="m 96.478794,41.386779 60.082506,0 c 0,0 0,1e-6 0,2e-6 l 0,2.092423 c 0,0 0,10e-7 0,10e-7 l -60.082506,0 c 0,0 0,-10e-7 0,-10e-7 l 0,-2.092423 c 0,-10e-7 0,-2e-6 0,-2e-6 z m -96.4787925613592,0 60.0825015613592,0 c 0,0 10e-7,1e-6 10e-7,2e-6 l 0,2.092423 c 0,0 -10e-7,10e-7 -10e-7,10e-7 l -60.0825015613592,0 c -9.9999998e-7,0 -9.9999998e-7,-10e-7 -9.9999998e-7,-10e-7 l 0,-2.092423 c 0,-10e-7 0,-2e-6 9.9999998e-7,-2e-6 z"
     inkscape:connector-curvature="0" /></svg>